<mxfile host="Electron" agent="Mozilla/5.0 (Windows NT 10.0; Win64; x64) AppleWebKit/537.36 (KHTML, like Gecko) draw.io/24.7.8 Chrome/128.0.6613.36 Electron/32.0.1 Safari/537.36" version="24.7.8">
  <diagram name="Page-1" id="kTO9pstEm8NIcC9ynU7b">
    <mxGraphModel dx="1295" dy="768" grid="1" gridSize="10" guides="1" tooltips="1" connect="1" arrows="1" fold="1" page="1" pageScale="1" pageWidth="850" pageHeight="1100" math="0" shadow="0">
      <root>
        <mxCell id="0" />
        <mxCell id="1" parent="0" />
        <mxCell id="CqfHQlrDjr0aH3tHqc1y-33" value="" style="rounded=0;whiteSpace=wrap;html=1;" vertex="1" parent="1">
          <mxGeometry x="75" y="30" width="640" height="350" as="geometry" />
        </mxCell>
        <mxCell id="CqfHQlrDjr0aH3tHqc1y-1" value="" style="rounded=0;whiteSpace=wrap;html=1;" vertex="1" parent="1">
          <mxGeometry x="230" y="90" width="320" height="240" as="geometry" />
        </mxCell>
        <mxCell id="CqfHQlrDjr0aH3tHqc1y-2" value="" style="outlineConnect=0;dashed=0;verticalLabelPosition=bottom;verticalAlign=top;align=center;html=1;shape=mxgraph.aws3.bucket;fillColor=#E05243;gradientColor=none;" vertex="1" parent="1">
          <mxGeometry x="250" y="235.75" width="60" height="61.5" as="geometry" />
        </mxCell>
        <mxCell id="CqfHQlrDjr0aH3tHqc1y-15" style="edgeStyle=orthogonalEdgeStyle;rounded=0;orthogonalLoop=1;jettySize=auto;html=1;exitX=0.5;exitY=1;exitDx=0;exitDy=0;" edge="1" parent="1" source="CqfHQlrDjr0aH3tHqc1y-3" target="CqfHQlrDjr0aH3tHqc1y-4">
          <mxGeometry relative="1" as="geometry" />
        </mxCell>
        <mxCell id="CqfHQlrDjr0aH3tHqc1y-3" value="" style="image;html=1;image=img/lib/clip_art/general/Empty_Folder_128x128.png" vertex="1" parent="1">
          <mxGeometry x="365" y="90" width="60" height="60" as="geometry" />
        </mxCell>
        <mxCell id="CqfHQlrDjr0aH3tHqc1y-16" style="edgeStyle=orthogonalEdgeStyle;rounded=0;orthogonalLoop=1;jettySize=auto;html=1;exitX=0.5;exitY=1;exitDx=0;exitDy=0;entryX=0.5;entryY=0;entryDx=0;entryDy=0;" edge="1" parent="1" source="CqfHQlrDjr0aH3tHqc1y-4" target="CqfHQlrDjr0aH3tHqc1y-5">
          <mxGeometry relative="1" as="geometry" />
        </mxCell>
        <mxCell id="CqfHQlrDjr0aH3tHqc1y-4" value="" style="image;html=1;image=img/lib/clip_art/general/Empty_Folder_128x128.png" vertex="1" parent="1">
          <mxGeometry x="367.5" y="185" width="55" height="50" as="geometry" />
        </mxCell>
        <mxCell id="CqfHQlrDjr0aH3tHqc1y-28" value="" style="edgeStyle=orthogonalEdgeStyle;rounded=0;orthogonalLoop=1;jettySize=auto;html=1;" edge="1" parent="1" source="CqfHQlrDjr0aH3tHqc1y-5" target="CqfHQlrDjr0aH3tHqc1y-21">
          <mxGeometry relative="1" as="geometry" />
        </mxCell>
        <mxCell id="CqfHQlrDjr0aH3tHqc1y-5" value="" style="image;html=1;image=img/lib/clip_art/general/Empty_Folder_128x128.png" vertex="1" parent="1">
          <mxGeometry x="367.5" y="270" width="55" height="50" as="geometry" />
        </mxCell>
        <mxCell id="CqfHQlrDjr0aH3tHqc1y-6" value="Data Preparation" style="text;html=1;align=center;verticalAlign=middle;whiteSpace=wrap;rounded=0;" vertex="1" parent="1">
          <mxGeometry x="250" y="195" width="60" height="30" as="geometry" />
        </mxCell>
        <mxCell id="CqfHQlrDjr0aH3tHqc1y-7" value="raw zipped file" style="text;html=1;align=center;verticalAlign=middle;whiteSpace=wrap;rounded=0;" vertex="1" parent="1">
          <mxGeometry x="450" y="117" width="60" height="30" as="geometry" />
        </mxCell>
        <mxCell id="CqfHQlrDjr0aH3tHqc1y-8" value="raw unzipped file" style="text;html=1;align=center;verticalAlign=middle;whiteSpace=wrap;rounded=0;" vertex="1" parent="1">
          <mxGeometry x="450" y="190" width="60" height="30" as="geometry" />
        </mxCell>
        <mxCell id="CqfHQlrDjr0aH3tHqc1y-9" value="split files&amp;nbsp;" style="text;html=1;align=center;verticalAlign=middle;whiteSpace=wrap;rounded=0;" vertex="1" parent="1">
          <mxGeometry x="450" y="260" width="60" height="30" as="geometry" />
        </mxCell>
        <mxCell id="CqfHQlrDjr0aH3tHqc1y-12" style="edgeStyle=orthogonalEdgeStyle;rounded=0;orthogonalLoop=1;jettySize=auto;html=1;exitX=0.5;exitY=1;exitDx=0;exitDy=0;" edge="1" parent="1" source="CqfHQlrDjr0aH3tHqc1y-9" target="CqfHQlrDjr0aH3tHqc1y-9">
          <mxGeometry relative="1" as="geometry" />
        </mxCell>
        <mxCell id="CqfHQlrDjr0aH3tHqc1y-21" value="" style="outlineConnect=0;dashed=0;verticalLabelPosition=bottom;verticalAlign=top;align=center;html=1;shape=mxgraph.aws3.bucket;fillColor=#E05243;gradientColor=none;" vertex="1" parent="1">
          <mxGeometry x="365" y="405.75" width="60" height="61.5" as="geometry" />
        </mxCell>
        <mxCell id="CqfHQlrDjr0aH3tHqc1y-24" value="Landing Area" style="text;html=1;align=center;verticalAlign=middle;whiteSpace=wrap;rounded=0;" vertex="1" parent="1">
          <mxGeometry x="450" y="405.75" width="60" height="30" as="geometry" />
        </mxCell>
        <mxCell id="CqfHQlrDjr0aH3tHqc1y-27" style="edgeStyle=orthogonalEdgeStyle;rounded=0;orthogonalLoop=1;jettySize=auto;html=1;" edge="1" parent="1" source="CqfHQlrDjr0aH3tHqc1y-26" target="CqfHQlrDjr0aH3tHqc1y-3">
          <mxGeometry relative="1" as="geometry" />
        </mxCell>
        <mxCell id="CqfHQlrDjr0aH3tHqc1y-26" value="" style="dashed=0;outlineConnect=0;html=1;align=center;labelPosition=center;verticalLabelPosition=bottom;verticalAlign=top;shape=mxgraph.webicons.google_drive;gradientColor=#DFDEDE" vertex="1" parent="1">
          <mxGeometry x="250" y="90" width="60" height="60" as="geometry" />
        </mxCell>
        <mxCell id="CqfHQlrDjr0aH3tHqc1y-29" value="" style="sketch=0;points=[[0,0,0],[0.25,0,0],[0.5,0,0],[0.75,0,0],[1,0,0],[0,1,0],[0.25,1,0],[0.5,1,0],[0.75,1,0],[1,1,0],[0,0.25,0],[0,0.5,0],[0,0.75,0],[1,0.25,0],[1,0.5,0],[1,0.75,0]];outlineConnect=0;fontColor=#232F3E;fillColor=#8C4FFF;strokeColor=#ffffff;dashed=0;verticalLabelPosition=bottom;verticalAlign=top;align=center;html=1;fontSize=12;fontStyle=0;aspect=fixed;shape=mxgraph.aws4.resourceIcon;resIcon=mxgraph.aws4.glue;" vertex="1" parent="1">
          <mxGeometry x="570" y="158" width="78" height="78" as="geometry" />
        </mxCell>
        <mxCell id="CqfHQlrDjr0aH3tHqc1y-30" value="" style="outlineConnect=0;dashed=0;verticalLabelPosition=bottom;verticalAlign=top;align=center;html=1;shape=mxgraph.aws3.lambda_function;fillColor=#5294CF;gradientColor=none;" vertex="1" parent="1">
          <mxGeometry x="410" y="340" width="40" height="30" as="geometry" />
        </mxCell>
        <mxCell id="CqfHQlrDjr0aH3tHqc1y-31" value="Lambda to Schedule 1 file to be sent to landing area every 10 mins" style="text;html=1;align=center;verticalAlign=middle;whiteSpace=wrap;rounded=0;" vertex="1" parent="1">
          <mxGeometry x="120" y="340" width="200" height="30" as="geometry" />
        </mxCell>
        <mxCell id="CqfHQlrDjr0aH3tHqc1y-34" value="Simulate Batch Processing" style="text;html=1;align=center;verticalAlign=middle;whiteSpace=wrap;rounded=0;fontSize=30;" vertex="1" parent="1">
          <mxGeometry x="115" y="40" width="560" height="30" as="geometry" />
        </mxCell>
        <mxCell id="CqfHQlrDjr0aH3tHqc1y-35" value="fact_events" style="rounded=0;whiteSpace=wrap;html=1;" vertex="1" parent="1">
          <mxGeometry x="330" y="680" width="120" height="60" as="geometry" />
        </mxCell>
        <mxCell id="CqfHQlrDjr0aH3tHqc1y-37" value="&#xa;dim_product&#xa;&#xa;" style="rounded=1;whiteSpace=wrap;html=1;" vertex="1" parent="1">
          <mxGeometry x="560" y="560" width="120" height="60" as="geometry" />
        </mxCell>
        <mxCell id="CqfHQlrDjr0aH3tHqc1y-38" value="&#xa;dim_category&#xa;&#xa;" style="rounded=1;whiteSpace=wrap;html=1;" vertex="1" parent="1">
          <mxGeometry x="560" y="810" width="120" height="60" as="geometry" />
        </mxCell>
        <mxCell id="CqfHQlrDjr0aH3tHqc1y-39" value="dim_user" style="rounded=1;whiteSpace=wrap;html=1;" vertex="1" parent="1">
          <mxGeometry x="110" y="670" width="120" height="60" as="geometry" />
        </mxCell>
        <mxCell id="CqfHQlrDjr0aH3tHqc1y-43" value="" style="endArrow=classic;html=1;rounded=0;entryX=0;entryY=0.5;entryDx=0;entryDy=0;exitX=1;exitY=0.75;exitDx=0;exitDy=0;" edge="1" parent="1" source="CqfHQlrDjr0aH3tHqc1y-39" target="CqfHQlrDjr0aH3tHqc1y-35">
          <mxGeometry width="50" height="50" relative="1" as="geometry">
            <mxPoint x="190" y="680" as="sourcePoint" />
            <mxPoint x="220" y="810" as="targetPoint" />
          </mxGeometry>
        </mxCell>
        <mxCell id="CqfHQlrDjr0aH3tHqc1y-45" value="" style="endArrow=classic;html=1;rounded=0;entryX=1;entryY=0;entryDx=0;entryDy=0;exitX=0;exitY=1;exitDx=0;exitDy=0;" edge="1" parent="1" source="CqfHQlrDjr0aH3tHqc1y-37" target="CqfHQlrDjr0aH3tHqc1y-35">
          <mxGeometry width="50" height="50" relative="1" as="geometry">
            <mxPoint x="450" y="680" as="sourcePoint" />
            <mxPoint x="340" y="760" as="targetPoint" />
          </mxGeometry>
        </mxCell>
        <mxCell id="CqfHQlrDjr0aH3tHqc1y-46" value="" style="endArrow=classic;html=1;rounded=0;entryX=1;entryY=1;entryDx=0;entryDy=0;exitX=0;exitY=0;exitDx=0;exitDy=0;" edge="1" parent="1" source="CqfHQlrDjr0aH3tHqc1y-38" target="CqfHQlrDjr0aH3tHqc1y-35">
          <mxGeometry width="50" height="50" relative="1" as="geometry">
            <mxPoint x="450" y="740" as="sourcePoint" />
            <mxPoint x="340" y="820" as="targetPoint" />
          </mxGeometry>
        </mxCell>
        <mxCell id="CqfHQlrDjr0aH3tHqc1y-55" value="" style="shape=image;verticalLabelPosition=bottom;labelBackgroundColor=default;verticalAlign=top;aspect=fixed;imageAspect=0;image=data:image/png,iVBORw0KGgoAAAANSUhEUgAAApwAAAKbCAIAAADXLM1KAAAgAElEQVR4Aey9z2tkR5r3+/4DUSUx6tS9KtnKnC6p863s8lTXq9dwrWl4rVpo4dT74pm6+CKZi2sup1TQl3dUXWBaQ8kYXOM+CdPQDeMaBrS4p8D0wlCmYRBe+eBeCXrhAi/OMle50y5XuTrXreftp5+OczKVytSPkyc/iemJjBPxRMQnzugbzxORFf/pJz/5yd/wgQAEIAABCEw4gX/91399/PhxdhCfnHyy+X/O+Z//9h//6/Pbf/77k+y//+ffZnOe/9v/Kvfbf/67P1X+u09++x/P//FP3/78f/+YLx95mjX4N3/3pzZ++2/Pf/tv/1Pq/uOfu/KJNvJnswNSP/nJT9I0/U+I+gBGPIIABCAAgUkh8Mknn/z7v//748wniqKf//zn447i7//5t3ni/Y/P/+NPejxuC2PWR9THBEh1CEAAAhAoEIG//du//Zd/+Zd/zXyePXu2uro6bkezoi7+fZ7Sj9vWSPUR9ZGwUQkCEIAABCBQPAKIevHmhB5BAAIQgAAERiLwZ1F3fCAAAQhAAAKTQOBHP/rRSJJXnko/+tGPcicKUc/FQiYEIAABCBSXwPz8fHn0eaSRzM/P504Pop6LhUwIQAACECg0gfn5+en013/0ox/1U3TnHKJe6LeWzkEAAhCAAASGJ4CoD8+KkhCAAAQgAIFCE0DUCz09dA4CEIAABCAwPAFEfXhWlIQABCAAAQgUmgCiXujpoXMQgAAEIACB4Qkg6sOzoiQEIAABCECg0AQQ9UJPD52DAAQgAAEIDE8AUR+eFSUhAAEIQAAChSaAqBd6eugcBCAAAQhAYHgCiPrwrCgJAQhAAAIQKDQBRL3Q00PnIAABCEAAAsMTQNSHZ0VJCEAAAhCAQKEJIOqFnh46BwEIQAACEBieAKI+PCtKQgACEIAABApNAFEv9PTQOQhAAAIQgMDwBBD14VlREgIQgAAEIFBoAoh6oaeHzkEAAhCAAASGJ4CoD89qlJJBEBwfH4dhKJWbzWbn5NNsNkcxdxV1kiSJ4/gqWqZNCEAAAhA4G4FxRX1hffuNz76T/5Z3D5xz1a19zak/fXl9/oZzrnL33u1f/0Hzq1v72k0pv7C+LTm2upSXwrahNz77TsurHU0s7x5oQ5LQwmJEW59dqjda32hhza/cvXfrk69ml+pqc/AQbDEvPemiHsdxp9OZoCWIx5+vEIAABKaKwFiiXt3av/3rP1Tu3rPIqlv7ou7X52/Un74UpcyVSefc9fkby7sHr737WKqondml+q1PvrKWF9a3dYmgxQYkclv84aPfvPbu45UPP5elhm3FlrdpbSI3U5/2S3ii3q9YMfPDMDw+Pg6CoJjdo1cQgAAEIOARGF3URbPVCVa7KurOueXdA1HrfopYuXvvh49+M7tUrz99aT1jK7dieXxRn12qL+8ezC7VVz78XJYLtpXK3Xsq9rm9zc3UUXuJIAi63W568un1ehJ+j6JIcpIkkfJBEHQ6nVevXqVpenh42D359BNRK7FeutfreZadc0mSSKa62mEYttvto6MjyT81qE7g3ZtWvkIAAhAoOIHRRd0qoh2kiroEt0X1+4Xfq1v7UmB598CuD7LGhw+/S2eyGrywvi1hg+rWviRs+N2GHLJ1zxR+F0WPosg5l/XU4zi2ot7tdkU7e71eFEV2A95Sdc55Qq4+dJIk0pYtH598JEfTYRj2ej3RcmvNVtR0s9lst9t6GkDzSUAAAhCAQGEJjC7qlbv3Gq3f2wi5DNJuiqtO58qkVe6F9W0bgbePxOyYnrqNK6hTbluxw8ntbW5m7rxGUaTO8amiLiouSp8tbO1bGbbpOI7TNNWFgnNOjuOJO249eFvLWs5NSxShX9ggtwqZEIAABCBwtQRGF3XriNsxqKdud9xzFdFzvhutbzQCb+VWjI8p6l6oQPxy24qn+rkH5bKZduCavmRRl3Ylti+LiX5ONqKuc0QCAhCAQCkJjC7qctDdKrEAUlEX1R9wUG5590CeSkUbgbdyK0/HFHXtlXayurVvWzlHTz0Mw263G4aheMy6py5Ne+H3M3nq1my32/XcaOtbJ0mi0QJp1wvga2a/RL+VQb/y5EMAAhCAwJUTGEvUvR+wSfzcyufC+raovucoe4IqFKpb+3q+3cqtPPXceg3s9yNoYwPWC1drjdY3P/ib/6Y/afP21O0P8PSsn820y5FsHyQknqbpF198oTvTmqkhcY23DxN+t2ffDg8Pv/+5exAEXqRdN9dz88/kqUtzpx6my46dHAhAAAIQuCoC44r6VfWbdi+BwFkXAZfQJZqAAAQgAIEBBBD1AXB45PjHZ3gJIAABCEwQAUS9cJPlRek1Vn9VHc39ydxVdYZ2IQABCEBgAAFEfQAcHkEAAhCAAAQmiQCiPkmzRV8hAAEIQAACAwgg6gPg8AgCEIAABCAwSQQQ9UmaLfoKAQhAAAIQGEAAUR8Ah0cQgAAEIACBSSKAqE/SbNFXCEAAAhCAwAACiPoAODyCAAQgAAEITBIBRH2SZou+QgACEIAABAYQQNQHwOERBCAAAQhAYJIIIOqTNFv0FQIQgAAEIDCAAKI+AA6PIAABCEAAApNEYNpFPYqiNE31xlI7dXovqs0kDQEIQAACECgsAUR9dFHfWVxr39nT/3YW15xzkrlRaTjnKtdmX6xsbVQardqmFpOEFMh9LZZ3D9747Dv5Ty+Yr27tZzO9W+ql8ML6tt4NLwX06vfZpXqj9Y3adM7ZtuTa+IX17Ubrm9mluvRNqqgFr8N23ROGYa/Xk+WRLJXkKhpZM0VR1O12gyAQC0EQdLtdLmv3ePIVAhCAwJgEpl3UB+CzijWg2M7iWqu2qQV2FtfixqPnN+9Xrs2qqMvT1bnal/UPqjPzWjg3sbx7ICJ6ff5G/elL0drq1r4kJNOqbOXuvVuffKUyvLC+vfLh56+9+9g599q7j1c+/FwLL6xv//WDcOXDzyt370nT2paI98L6tii9tOWc03Zzu6qIms1mp9PRgEcURZ1Op9ls2lrJyUdy4jhOksQ+JQ0BCEAAAuMTKJaoh2F4fHws/pyX7vV62UtIkySRTJWQKIpEPCRfZSZLSnQoTdNerxeGoRYQJ1Kqe4+0jE1kRb1V2/yourE6VxtT1EVTxbG24rq8e6Ci+8d4wF+KenVr/68fhH/9IJxdqktCRf2Hj35TuXuvurWvOSrqdq2gAj+7VL/1yVe6ArCjlrSKepIk1u3OFXUB+/0jrZU1SA4EIAABCIxDYDJEPfdK7/jkI4PXtN0jz5UWD5YnMCo8zjnvkVdRv+aKuoTcxxR1K7Qq6qq42oGsqFe39l9797H8t7C+LSuA2aX68u7B9fkblbv3Vj78/Pr8DXHKReArd+81Wr9X/V5Y364/fWm9fG3OJgTR0dGR53Znw+9SS2ak3W7bFYA1SBoCEIAABMYhMBmiHsdxmqZWOdTPFpdanw4j5JaXp9y2uvfI1rLpXFH/Pvb+/Ob9n/5gRfbUpfzw4XfdPleX2u6pS5Bc+5Ar6rNL9frTl7NLdRV1XRZcn7+hEXjdU9dteDEr6wm7ua7N2YRGNezUOOcsRlteZs1urtunpCEAAQhAYEwCkyHqMkjx/yTS3mw22+22DZtrGQ3FD4PGU26rRt6jftZyRd05t1FpPHn97dFEXbVcG1VJrm7tewLsifry7oFVfRF1EWldK7zx2XfShIbfl3cPPAnXFrUP2YQgev78eafTsc63xejVYjfdA8JXCEAAAudIoHCi3u12wzDs59IFQdDpdGTTPUmSrH4PkJNcap5yh2FoOzDynvoft8Nn5r+sfxA3HulB9+E99QGinj2OPoyoe2U0Aq+iLufk7WpgeFEPw9BuWwzw1J1zuaIukZgBByBy545MCEAAAhDwCBRL1J1zevbt8PBQ9NuLtOuf/tz84UVdQ8femTgRmDRNv/jii9xggBLs95M2PQxvf97mnDsXUXfO6a/Ocn/SlvXU609f1v7vT+zZOt2YV1G3h/JkgGcSdeec/KRN/PV+e+r9RF3KW19fIZOAAAQgAIHhCRRO1IfvOiVLQ8Bz9EszLgYCAQhA4JIJIOqXDJzmfAISm9EAjP+Y7xCAAAQgMDSB8ou6htP1nLwelR+aEgUhAAEIQAACE0Cg/KI+AZNAFyEAAQhAAALnQQBRPw+K2IAABCAAAQgUgACiXoBJoAsQgAAEIACB8yCAqJ8HRWxAAAIQgAAECkAAUS/AJNAFCEAAAhCAwHkQQNTPgyI2IAABCEAAAgUggKgXYBLoAgQgAAEIQOA8CCDq50ERGxCAAAQgAIECEEDUCzAJdAECEIAABCBwHgQQ9fOgiA0IQAACEIBAAQgUUdTt9Wt6c5e9BKwA3ArUBbni7IL+7fTcm1ILNHi6AgEIQAAChkARRT1XSMYU9eGvZJUlxQVppCF/5mS/IVytqI+Jq1XbbN/Zs/9tVBqrc7Vvbz/WzBcrW5VrsxuVxre3H6/O1eQS229vP95ZXHPObVQaWrJ9Z09vr7eWJdPmSBUtLEbE4B9voZ2Z//rWI/lauTb7YmVL+mAtSM6ZZ5EKEIAABC6SQBFFPUkSddDPa+z9FDFrf0yVyho8r5zhh3BeLfa7/tzaPxdcuTfNe5kblcbzm/ffX3jTOff+wpvPb95XUc/q687imt5qb3vb71b7j6obYrNybVZE/fnN+x9VNyrXZlfnaq3a5vOb9yvXZlu1Tav0/ZrwWuQrBCAAgUsjUCxRl1s49Tq1brcbBIFzTvOtAx1FUXLykfLySDRGcqS63NWtNgdf0eZd6dbr9cIwdM7ltmUta1fDMGyffGyvxIL2QZcstjnN9Ap/r+W2ITGSJIlzTger/ZT3RqIaUlLNJklydHTU6/XSNO10Os1mc8BLZjsmbdlZSNNUaNtiaZrabuiUndpWP6H1RH1nce3J628/ef3t6sy8JAaIequ22U9xPbMi4a3aZnVm/vnN+xoJeH7z/sPFtdW52vsLb6req6g753YW17KLiQFIeQQBCEDgEggUS9RlwLmeetYjtGFn9WJFfbPgtED2kZeTbUhVVpQs11R88nHOiaCKEGrJZrPZbrdlfeA1J1+DIOh0OrKCiaLIqqOWV2uao3WPj4/VeBiG3W5XvspqQLqdJImYzR2gtRnHsSpxv62Qdrsty4Jca0pDfH1dWNhWbDortFml31lc21lcE4l9f+HNjUpDZDs3/C7x8/adPRH+wW1tVBpSTJqQpp/fvP/TH6w8PFlJ/OfZGy9Wtqoz8yrqEpPPGrcNkYYABCBw+QQmW9RVexScaKr6zZrfTxG1gCZyVSq3upRU/1uEPAzD4+NjkWebFs/VkzdZl4gFFfLcNY0sLLLjdc4FQWBF3VvWqDVNiM/t9aTf8K2oW79cCWdxeVgGh0ak3eFFvTozL/pqRb2fxyzSazfas2sFKSOb66tzNQmza6JV29yoNLRRu6eOous7QwICECgOgbKJupAVD1VlcoAiZmciq1L9qud6tFbIbVoaEl0U+bdutBVmq762e7kLi0sTdRsAsOPK4jo1LGEHJelhRF30VesOI+pSeKPSsKrvteUdypOzeGpcLFhRR8t1CkhAAAIFJFBOURfQSZJI5Fmi4upAnzoNWVnNFVTZ0RdZ7Xa7gz11bVQ23ZvNppXJOI51CRJFkfrBWmvAEOyCQIpp+N02YQdl07YJSeu4JJCgWwnaqyRJNJ3r9ydJkhtUyLYlOZ7Q5maOLOre5rfXlnekTiLwiHq/mSIfAhAoOIEJEPVsOHfw3rYXD9cJ0KNbolKan03oQTMrtFmVssWOjo4GiLo96aY27dEzOVun++I20K3rElte2rJm7Tk1G9XX6lbIbTo7fDXb6XS++OILacvOwqtXr/QEgB4jsB2whfVUXbYhzfGE1vOexc/OirrkZ/fUNeouv1uzbroXfrexd+nMRqXx9a1H/+f//l/sObvqzPyX9Q/kGDyeus4aCQhAoIAEiijqBcRElyAAAQhAAALFJ4CoF3+O6CEEIAABCEBgKAJTKuoaOddYfZqmdp94KHgTXkj3IyyEfqfiJ3ysdB8CEIDAVBCYUlGfirllkBCAAAQgMGUEEPUpm3CGCwEIQAAC5SWAqJd3bhkZBCAAAQhMGQFEfcomnOFCAAIQgEB5CSDq5Z1bRgYBCEAAAlNGAFGfsglnuBCAAAQgUF4CiHp555aRQQACEIDAlBFA1KdswhkuBCAAAQiUlwCiXt65ZWQQgAAEIDBlBBD1KZtwhgsBCEAAAuUlgKiXd24ZGQQgAAEITBmB0UVd7wWfMmIMFwIQgAAEIFBQAqOLunMujuNT7yYv6LjpFgQgAAEIQKB0BMYS9Waz2el0oigqHRYGBAEIQAACEJg8AmOJunMuiqJOp9NsNnXoURSlaYrSKxASEIAABCAAgcshMK6oB0FwfHwchqF2F1FXFCQgAAEIQAACl0lgXFFvNpvtdtuK+mX2nrYgAAEIQAACEFACiLqiIAEBCEAAAhCYbALjinoQBJ1OJwgCxRCGYa/Xi+NYc0hAAAIQgAAEIHAJBMYV9exBuSAIut2ud3ruEkZCExCAAAQgAIEpJzCWqOf+pE0y8dSn/MVi+BCAAAQgcPkExhL17D8+I0ff+RdpLn8iaRECEIAABCAwuqjzz8Ty9kAAAhCAAAQKRWB0US/UMOgMBCAAAQhAAAKIOu8ABCAAAQhAoCQEEPWSTCTDgAAEIAABCCDqvAMQgAAEIACBkhBA1EsykQwDAhCAAAQggKjzDkAAAhCAAARKQgBRL8lEMgwIQAACEIAAos47AAEIQAACECgJAUS9JBPJMCAAAQhAAAKIOu8ABCAAAQhAoCQEEPWSTCTDgAAEIAABCCDqvAMQgAAEIACBkhBA1EsykQwDAhCAAAQggKjzDkAAAhCAAARKQgBRL8lEMgwIQAACEIAAos47AAEIQAACECgJAUS9JBPJMCAAAQhAAAKIOu8ABCAAAQhAoCQEEPWSTCTDgAAEIAABCCDqvAMQgAAEIACBkhBA1EsykQwDAhCAAAQggKjzDkAAAhCAAARKQgBRL8lEMgwIQAACEIAAos47AAEIQAACECgJAUS9JBPJMCAAAQhAAAKIOu8ABCAAAQhAoCQEEPWSTCTDgAAEIAABCCDqvAMQgAAEIACBkhBA1EsykQwDAhCAAAQggKjzDkAAAhCAAARKQgBRL8lEMgwIQAACEIAAos47AAEIQAACECgJAUS9JBPJMCAAAQhAAAKI+gW+A2EYHh8fB0EgbYRh2Ov14ji+wCaHM50kyeV0I4qiTqfTbDaH6xelIAABCEBgLAJjifry7sEbn30n/y2sb88u1Rutb2yOdG1hfVsz3/jsu4X1bcm/Pn+j/vRlo/XN7FJdcqxBNeucs/m2vDd0rwNvfPadFs62Vbl77/av/6Ad015Vt/aXdw88y/2G4BXzvpZM1IMgOD4+DsPQG2a/r2EYdrvd4cv3s0M+BCAAAQgMSWBEUReNrD99eX3+hrY0u1S/9clXlbv3nHML69sqqAvr215JqVK5e++Hj36zvHuggqr5tz75SpVeRL26ta8NnZrICnO2rcrde9qK7WG2rgwndwiDe+KJ+uDCl/l0NE/9TKLebDY7nU4URZc5LtqCAAQgMOUERhR1q4hK0Ip65e69Ruv3KvC5iljd2l9Y315Y3/Y846zx5d2DMUU925ZtxfZhfFGXMHt68ul2uxJ+T5JEclTn4jh+9erV9wU6nc7R0VGapgNC4nEcHx0ddTqdNE17vZ64v81ms91uHx4e9nq9NE010G07YG1qH7Qtq+42nbVg66ZpquPS2fcSBN49IHyFAAQgcAkERhR169pqL62oV7f2VchzY9fX528s7x7MLtVnl+r1py+tX27lVowPGX7XnnjCnNuWDb9rUME559UVm7lD0OZswsacPU/dc17jOO71elEUdbtdEdQkSawpm47jOE1TWRDEcSwlxaBouRq3HQiCoNvtSq3k5CM2Vb814ZzTtCi6Lj60G2fy1OOTj9YlAQEIQAACl0BgRFG3mq29tFvaquj9Ytd2WeBF4HNFfRxPPbct24rdLOgn6nZEOuRsQhXXOXeqqCdJokppK55qtt1uN08+2RB3FEV2cSBSra2IZdVvTVhR79cTz0i2kzYnSZLsssAWIA0BCEAAAudOYERRtyqofVJPXdRdg+pWU7Wwdb7f+Ow7Leycs3Ir5ccMv+e2ZVvRng/w1BF1RF3fXhIQgAAEiklgRFGXg3JWiZ1znjRqTDsr6rakVLQReCu3Qm0cUe/Xlm3FrlHG9NQlnB6cfLonH/1Jm0bIZVDiEKtS9vOPbWFJq3vtGZSnNvyuaSkp++sSyZe0xuSjKNKNdq0lBvV/c5vTp16C8LsHhK8QgAAELoHAiKLunBNdtz8Js/IpTyVmnt2Q9mTeFu7nqWtDulYYQMcKc7+2Buypa1v6A7zsEAa0LmfKZL+80+kEQSByKAfl9LjcWUVdq2t0vZ/KikJrQ9JVPfsmawIRdc2Uw3p6qs5a0EznnOZzUG7AC8AjCEAAAldFYHRRv6oeT2e7g/34AjLpt+AoYFfpEgQgAIHSEEDUJ2MqJ07U5Zwg//jMZLxe9BICECgLAUS9WDPp/RxcQuiyP61R92L1eGBvvKP4A8vyEAIQgAAExiWAqI9LkPoQgAAEIACBghBA1AsyEXQDAhCAAAQgMC4BRH1cgtSHAAQgAAEIFIQAol6QiaAbEIAABCAAgXEJIOrjEqQ+BCAAAQhAoCAEEPWCTATdgAAEIAABCIxLAFEflyD1IQABCEAAAgUhgKgXZCLoBgQgAAEIQGBcAoj6uASpDwEIQAACECgIAUS9IBNBNyAAAQhAAALjEiizqOsVpeNCGlg/SZJ+V5aFYXh8fKxXrw40w0MIQAACEIDAuAQQdZ/gWa8XG1nUqzPzX9961L6zJ/99fetRdWZeMl+sbFWuzTrnNiqNFytb9dkFW7J9Z08K+10/+T67VG+0vtHbY+X2W+fc8u6BZi7vHkhdmyn3zMo1uLaAveu2urWv19E657y2Fta3nXPVrf3605fX529IE3LFrTzKdtiue6Io6vV6YRh6N9V2Op1/+qd/6nQ69hLYOI77raWyrZADAQhAYEoIIOr+RJ9V1P365rtVLJP9F8nqzPyX9Q9W52qSK1/jxqONSkNFXQTeObezuNaqbf5F/cwXe6u9FdTl3QMReFFiq7L6yDl3ff7G8u7B8u7B7FJ9dqm+vHtQf/pydqmuj15797FKvm1rYX1b5F+WBXYxoelMZ50iCoLg+Pg4DEPnXO4UhGGod77Zwlmb5EAAAhCYWgLFEvUwDNvt9tHRkd5OJhOTJMnh4WG3203TVP0z6891Op1ms6mFpXqapuLb2XtLbTprIY5jrZumqTiO/V6OMAx7vV6aprZ1uXJU8m1v+xnJFfX3F978qLoxvqhbfVXltpnSK30kznf96cvX3n28sL69sL792ruPVdQrd+/98NFvZpfqmmNFvXL3XqP1+8rde845TVfu3rv1yVeyJsglIKL+i1/8otPpRFEkZXJF3TkXx7GgtpOYa5ZMCEAAAtNJoHCi3uv15I5R9eGcczbELTvl8ndf47HJyUdK6hWluqduNUDTYkEL6/T3UxQt4CWiKLKibh1KOwSvln7NFfWf/mDl+c37q3M1Cb+P46mr0Kpyq+JqH/SRinrl7nrtwS9rD375V/X/uvLh5yLV1a198e+Xdw8kYUXdi7pXt/ZXPvy8/vSlDQloi5oQRK9evdKpVE9dV1eKV6bm6OiIkwoKkAQEIAABS6Bwoq5/r5vNZrvdlnisyrN2PQiCTqejZ9BEWX/1q19pCFcEfoCn3k9xxxR1XTSIy67D0Z57iVxRFzlv1TZHE3XdU7/96z+IHts9dZspncmK+uxSvbq1X93avz5/Q0Td6vfC+rZE4O2eut1H1+12L9Mbu41qZEVdHXdbK4oiDcDYfNIQgAAEIOCcQ9QD7z0oiKhXrs22apvvL7yph+ZG2FO3Q1PlXt49sGffRO9127ty997Kh5/rMTcV9YX1bT1n98Zn34kFVXpRd91rl3a1RdsNLy1Lq1/+8pfdbldVfMAUsJvuAeQrBCAAAUuguKJuw9pZT13+7ot7p2lNyP6runS6Fyu74BJyt4UtEevie/m5X20/nXNRFMmufxAE3ZOPhhNyq/fz1EXCf1d/cO6ibk/PSZes+vYTdVtG1gEL69sq6nLofcBaIXfsNphhty1kalTjbd1cURfUGqW35UlDAAIQmCoChRP13CNmWVF3zsmfctl51a1xPbwmVUT1tWS32z08PNTCmu8ddlMjgw/KSSg4u/WbJIkcshO97yfq/X7SpofhvZ+3nZenbn91lv1JW1bU609fLm7+v7c++Uoj+Wrhr+qrmj/4/F2//6eymyDCM4oiEfUsWJl0u8MiZqW8nqDs1xb5EIAABEpPoHCifuomdOmnhAGOQECDMSPUpQoEIACB0hBA1EszlVM6EAmrEHuf0uln2BCAwF8SQNT/kkfeNwmnazRYEva0dl4l8iAAAQhAAAKXTaBYon7Zo6c9CEAAAhCAQIkIIOolmkyGAgEIQAAC000AUZ/u+Wf0EIAABCBQIgKIeokmk6FAAAIQgMB0E0DUp3v+GT0EIAABCJSIAKJeoslkKBCAAAQgMN0EEPXpnn9GDwEIQAACJSKAqJdoMhkKBCAAAQhMNwFEfbrnn9FDAAIQgECJCCDqJZpMhgIBCEAAAtNNAFGf7vln9BCAAAQgUCICxRJ1exHnBUGO41ivXr2gJi7U7LkjSpIk9+byCx0FxiEAAQhA4CIIIOp/plq5NvtiZWtncU2zNiqNr289qs7M//EG8Zn5r289erGyVbk2KwV2Ftfad/bkP5svdiT/29uPV+dqO4trrdqm1JKnG5WGfN2oNNp39myjrdqmmtVaUlgugAeiHBEAACAASURBVLcaLNXbd/a0n7b19p097ZjtrfRKbWZvKJdH/C8EIAABCEwWAUT9L+ZrZ3FNVdA516ptqtxuVBpPXn/7+c37q3M1qaNSbVcDov2eGGtJ55wn6h9VN95fePP5zfu6VtBGxZTKv3MuSRJ7O1x1Zv7FypasOVq1TWnUs6/Ds33QTElEUcTVpR4TvkIAAhCYRAKFE/V2u310dORdb5okyeHhYbfbTdO02+0GQeCck4u0paRqUpIkR0dHvV4vTVPNdM7Fcax3pw4Iv6/O1eLGI5Ht6sz8l/UPVMI/qm6Iz60yb2VSNXWj0rDLAnknbEkrutWZ+VZtszozb9cKKup2rSDjPT4+lrFnXzVt19q3xWwfbL5zrtlsdjodGwDwCvAVAhCAAAQmgkDhRL3X64no2s3jJElUyz1vVSjrxnCSJL1eLwxDK1RxHKvAD95TtzqqMimx91Zts3JtdnWupl61yqR1qTXTTr8NfUtoXfzvjUpDlgg7i2u6VlBRtysM51wURQOWI1pLhqABfHX0bR+8QIIsegYYt2MhDQEIQAAChSVQOFFXZ7TZbLbb7TAMs2FnoSkbzOp/S1zaSr6krboPo14agVeZdM6pVFeuzapXbWVStVNddjvlWt2G361LbdcKuqdud76l5zb27tnPhgeccxuVhmdEDwfoGkLsDF4x2LZIQwACEIBAYQlMsKgnJx8hq1quCV0KnFXUJeq+UWlo7N3zffVcm0r1zuKaaqeuCeyUa0kr6qtztW9vP1aXWi3oYqJV29TjbwNEPbdFad3bQdAuaROag6grChIQgAAEJpdAcUXdnt6yUi2sRarFc5XN9X6euqi7xJajKErT9NQ4c6u2+bv6A/V9V+dqX9Y/kPNozjn1qlWqJfwuvq9N62uhJa2o20wJBogFVVxRfY0B5Opuq7ap/dTmNJGr915UXwrHJx+tSAICEIAABCaRQOFEXc642QNx6nN7fEWhpeSrV68GiLoG6judzhdffHGqqHs/M/PUV3fQbX72x2/igov/bUuK3//f5994sbKlgi2hcvHLVdRF6VWz7SEDQeH5+u07exuVho0raF0xZbtkYXrBDPuINAQgAAEITBCBYon6BIG7kq5mIxbn0g0bFDkXgxiBAAQgAIErIYCoXwn2ERvN/uMzIxoy1YIg4B+fMTxIQgACEJhgAoj6hE1eGIbtdrvZbJ5Xv/XXgOdlEDsQgAAEIHBVBBD1qyJPuxCAAAQgAIFzJoConzNQzEEAAhCAAASuigCiflXkaRcCEIAABCBwzgQQ9XMGijkIQAACEIDAVRFA1K+KPO1CAAIQgAAEzpkAon7OQDEHAQhAAAIQuCoCiPpVkaddCEAAAhCAwDkTQNTPGSjmIAABCEAAAldFAFG/KvK0CwEIQAACEDhnAoj6OQPFHAQgAAEIQOCqCIwu6uf+75VeFQLahQAEIAABCJSDwOii7pyL4/jUa0zLgYlRQAACEIAABIpPYCxR5x7u4k8wPYQABCAAgekhMJaoO+eyV3FHUZSmaRRF0wORkUIAAhCAAASKQGBcUc/exo2oF2Fe6QMEIAABCEwhgXFFvdlsttvtMAynkB1DhgAEIAABCBSKAKJeqOmgMxCAAAQgAIHRCYwr6kEQdDqdIAi0C2EY9nq9OI41hwQEIAABCEAAApdAYFxRzx6UC4Kg2+12Op1ms3kJA6AJCEAAAhCAAASEwFiinvuTNsnEU+cNgwAEIAABCFwygbFEPfuPz8jRd/5FmkueRZqDAAQgAAEIOOdGF3X+mVheIAhAAAIQgEChCIwu6oUaBp2BAAQgAAEIQABR5x2AAAQgAAEIlIQAol6SiWQYEIAABCAAAUSddwACEIAABCBQEgKIekkmkmFAAAIQgAAEEHXeAQhAAAIQgEBJCCDqJZlIhgEBCEAAAhBA1HkHIAABCEAAAiUhgKiXZCIZBgQgAAEIQABR5x2AAAQgAAEIlIQAol6SiWQYEIAABCAAAUSddwACEIAABCBQEgKIekkmkmFAAAIQgAAEEHXeAQhAAAIQgEBJCCDqJZlIhgEBCEAAAhBA1HkHIAABCEAAAiUhgKiXZCIZBgQgAAEIQABR5x2AAAQgAAEIlIQAol6SiWQYEIAABCAAAUSddwACEIAABCBQEgKIekkmkmFAAAIQgAAEEHXeAQhAAAIQgEBJCCDqJZlIhgEBCEAAAhBA1HkHIAABCEAAAiUhgKiXZCIZBgQgAAEIQABR5x2AAAQgAAEIlIQAol6SiWQYEIAABCAAAUSddwACEIAABCBQEgKIekkmkmFAAAIQgAAEEHXeAQhAAAIQgEBJCCDqJZlIhgEBCEAAAhBA1HkHIAABCEAAAiUhgKiXZCIZBgQgAAEIQABRv8B3IAzD4+PjIAikjTAMe71eHMcX2OQkmPawTEKX6SMEIACBySAwlqgv7x688dl38t/C+vbsUr3R+sbmCIOF9W3NfOOz7xbWtyX/+vyN+tOXjdY3s0t1ybEG1axzzubb8h5jrwNvfPadFs62Vbl77/av/6Ad015Vt/aXdw88y/2G4BXzvnrqdWmi3mw2O51OFEVef4rwNQiCbrdbzL4VgQ99gAAEIDAOgRFFXTSy/vTl9fkb2vzsUv3WJ19V7t5zzi2sb6ugLqxveyWlSuXuvR8++s3y7oEKqubf+uQrVXoR9erWvjZ0aiIrzNm2KnfvaSu2h9m6MpzcIQzuiSfqgwuf49Mii3qSJMQqznGuMQUBCEDAEhhR1K0iqjkr6pW79xqt36vA5ypidWt/YX17YX3b84yzxpd3D8YU9WxbthXbh/FFXTzy9OTT7XYl/J4kieSokxrH8atXr74v0Ol0jo6O0jQdrHbWrJZUs2maiuU4jqUh+d9erxeGocyRFu50Os1m0zkn8q/ls73VnGaz2W63Dw8Pe71emqZiIY5jz5R2TN8Km7iqVY7tA2kIQAACJSYwoqhb11bpWFGvbu2rkOfGrq/P31jePZhdqs8u1etPX1q/3MqtGB8y/K498YQ5ty0bfteggnPOqys2c4egzdlEGIbdbld01NMwz4GO47jX60VR1O12xX9NksSasmlRdF0Q2EeSDsOw3W5bqfYKxycfKazp5OTjnAuC4Pj4WLqtmc45lW3pvEi4DsTW8gab7aFzLoqiAWPMrUImBCAAAQgMT2BEUbearY3ZLW1V9H6xa7ss8CLwuaI+jqee25ZtxW4W9BN1OyIdcjYRx7HqlqdzqoVSS0qqLtqKg83ap9Yvt161t6cuTatHnqapdFL1W7e6xSNX516H4HVe+6DrA03oo2ximDLZWuRAAAIQgMCQBEYUdauC2pJ66qLuGlS3mqqFrfP9xmffaWHnnJVbKT9m+D23LduK9nyAp15AUe8XFcgKsCfVOgtRFKnSS+TcK3mqqEuBX/ziF+12W5cCat9LIOoeEL5CAAIQOF8CI4q6HJSzSuyc86RRY9pZUbclpaKNwFu5ldGOI+r92rKt2DXKmJ66hNODk0/35KM/afO09kyeutVvfQO0LedckiTqqctXb3s7SRLd/xYLnn6rWXXfxY749F7ntbCW0fiEfeSlCb97QPgKAQhA4HwJjCjqzjnRdfuTMCuf8lRi5tkNaU/mbeF+nro2pGuFASCsMPdra8CeuralP8DLDmFA63IeTfbLO51OEASiiOoTy6G2M4m6bEirBfWqO52OZL569Urako7pqTo9KOf1QXbcraeuJ/VsSV0HDBB1MeJt4efyUb8/9ymZEIAABCAwJoHRRX3Mhql+5QQ8nbZ+/5n6dqaK/KTtTGwpDAEIQOBMBBD1M+EqVWE9HCej0oPuZxqkrAy8UP8AC16jA0ryCAIQgAAEzkoAUT8rsYstrz8l10i7RsUvomEbfrdb8kO2Jb0dZjfdGrS/vrP5pCEAAQhAYEwCiPqYAKkOAQhAAAIQKAoBRL0oM0E/IAABCEAAAmMSQNTHBEh1CEAAAhCAQFEIIOpFmQn6AQEIQAACEBiTAKI+JkCqQwACEIAABIpCAFEvykzQDwhAAAIQgMCYBBD1MQFSHQIQgAAEIFAUAoh6UWaCfkAAAhCAAATGJICojwmQ6hCAAAQgAIGiEEDUizIT9AMCEIAABCAwJgFEfUyAVIcABCAAAQgUhQCifiEzMeA2Uq4fvRDiGIUABCAAAecmW9TlSvICzuM4ot6qbbbv7Ol/G5VG5drsi5Wtr289qs7MO+dW52pf1j+ozsx7Jdt39jYqjX40lncP9J74+tOX1+dvOOds5vLugdStbu1ryTc++666te+cq27t6032crv8wvq2lJevUkxysmYX1re1unNudqneaH1jq9hu23VPFEV6Jby97Uaun/FulpNb5Ie52d02RxoCEIBAaQgg6pc9lVaxBrTdqm3uLK5JARH139UfSI6Kujz1vvazubx7ICJ6ff5G/elLkXDNFJVVnRYVV5nXr1Kg9uCX9acvtfAPH/3mtXcfr3z4uSwUZK0gbVmzy7sHarC6ta/pbIcVURAEx8fHYRhKmexd7N7Fr9kCWePkQAACECgxgcKJuvyZlotHO51Os9l0zsVxrFeRytXd4pNppr2fVP05re6c08w0TdXzsxePqnuXJMnh4WG3203TVNzBMAy73a5Ki+cdei+H9l9bkQK2w8NccpoV9fcX3mzVNivXZj0V9756/dGvqt+i0OKsa6YovXWdPd1d3j147d3HtQe/nF2q1x78cnn3QER9dqm+vHswu1Rf+fDzyt170lyuWRX42aX6rU++0sLaQ02IqP/iF7/odDo6LzKJ2YvbdXZ0KaB2SEAAAhCYNgLFEnVRxAH3cwdB0Ol0giCQecqG3+OTjz4VDVAZFvuiE1EUqbiqMIhyaL56fpqwFga8K56Lae0PqT1ZUd+oNFq1zY1Kw1Nx72u/XuUKrWZW7t5rtH5vhTYr6gvr27UHv3zt3ccL69vVrX1ZAUhaFgq6JuhndmF9u/705cqHn2vJ3N4KolevXnkSbldmOkey5mu3294KINcymRCAAATKTaBYot5P8KxLbT1gT9TVS1YPXtYHnqir0qtmWKlW/bYTH4Zhu91uNpuasE+zaU/UbT/7jdEzkivqq3O15zfv//QHK7KnLlWGF3XdKVdN1c3v27/+g1V0jbdrr8Q1r9y9J2F2EXXx78Vl10d2q94zK+Xt5rratwmNaugEydPcqXHOBUHwvcbbwIy1RhoCEIDA9BCYAFGXP9niXg8QS+dcs9lst9saJ9dZVJFI01TDANanP1XUtYCtpfaziQH9HEfUnXMfVTfeX3hzNFFXLdcOq0u9vHvgaa311K/P37DRdfXLK3fv3f71H3StoBI+pFnthpcQRL/85S+73e6p4Xep20/vPct8hQAEIFBuAsUSddFOzz+zses4jq2nHkWR558lSeLlSETdaoPMqA2/23Q/eZC2bPB/wJvhibralwWKDR33M5LrqTvnNiqNuPHo3EVd5FnPvnmeej9Rt8KvSm8Pyg0222/suu6xU99vT12MZGdN3qVhUPfrBvkQgAAEJo5AsURdQ6neQTndTG2ffNQXlz/cUliWAjYnTVPRcuupe8661LULhaw8yKSKHquj32+mpZjG/9WyDKHX68niQI8FZO14P1TTn7TJz9W8n7fZX7hlTdkc9Z77ZVa39uX0XPYnbbmivvzk/7Nn4J1z+rs125aalXa9dYDtjKZV1J1z9seB+hroGUatkjtrSZIofy1JAgIQgECJCRRO1C+Ctf2L7zl/wzdndwGGr0XJKySgAZIr7ANNQwACELhMAuUXdS+kP/Ifej1td5nTQ1ujERh+m2M0+9SCAAQgUEwC5Rd155wNv48Qj5UIsLc7a386r8H2U4PzxXwJ6BUEIAABCJSDwFSIejmmilFAAAIQgAAEBhNA1Afz4SkEIAABCEBgYggg6hMzVXQUAhCAAAQgMJgAoj6YD08hAAEIQAACE0MAUZ+YqaKjEIAABCAAgcEEEPXBfHgKAQhAAAIQmBgCiPrETBUdhQAEIAABCAwmgKgP5sNTCEAAAhCAwMQQQNQnZqroKAQgAAEIQGAwAUR9MB+eQgACEIAABCaGAKJeiKnyrmotRJ/OoxPZu3HHsRqGYbvdbjab4xihLgQgAIESE5hsUY/juBz/3PoIol6dmf/61iO5j1Ve0J3FtRcrW5Vrs3LtevvO3s7imr679kbXVm1T8zcqjfadPfmvVduUq13V7Opczd7dvrO41r6zp0+lD1pd88V49kI87YN2wLMg+bmZYrM0M678SUAAAhA4RwKI+jnCHN3UCKLunGvVNlUdPTH+qLrx/sKbz2/eF42XwqLxdjWws7j27e3Hq3M17bpnx4p65dpsq7b5/sKb2mh1Zv7L+gdSfaPS+PrWo+rMvJiSy/HkPnvJ2ag0rGbLCsBa0D7kZvYzq7VIQAACEIBA4URdxEDuPet0Os2TWKu9Ei2OY+/iNSks+c65JEm86jYzTVO9qE2uX5PCKj9JkhweHna73TRN5WY2z+M89Q7W3CHktiU3hEoHtFe2t0og9021OmrVtzoz36ptVmfmn9+8r4Ldqm2KqIts7yyuefotTXiZ1uzqXO2j6kZ1Zv7FypaIt1Xf1bla3HikzQ0OvGtnrAUdY26mPh1sWYuRgAAEIDCFBIol6iKHAyLqQRB0Op0gCGSqssHY+OSjT0XpVYbFvui3vVjdynaSJHrLapIkYkET1kLu65I7hNy2RNGlM9ZTzx1Cbluez60O9EalIfq9s7imEXjVUVXfXO0UUdeIevvOnvrfO4tr4l63aptZP9sG/51zdhRe5227NtKuMYPcTDViWWkmCQhAAAIQcM4VS9TDMDw+PlbN1hmybq71aD1RF0EVx1f+V9YHnqir0qtzb6Va9Vtbl8CAHNE69axW7hCswmlb1uNUoeo3BNsZm5YIvHWvbXp1rqYReN3PVu1UdbcGbXXnnHrqVom9QLqsAHQ7X6wlSaLBj6x9XWrYRzuLa7qA0PxsZrPZbLfbYRhqGRIQgAAEICAEJkDU+3m04g5at77fn/swDHu9npV5z5VUoZXQt4q9viVawMqzPrWJ8UX9TIolortRaehxttW52re3H6urrRKunnqrtinaaR19HUI/Ubfn6dR9V6UXUxoqEIxZURfjuYpuFxDamdzMfrNsa5GGAAQgMJ0EiiXqop2eptrYeBzH1lO3zq7MX5Ik2X3oXK/RhsRtOtdTd85JWzb4n/vG5A7B2te0jkuq6Lhyh5DblnNOZPJ39QcqqDuLa5p2zmkEXkVdVF/i51k/uJ+oa3XpiUTgVdSlIetnZ1c/Ivz9FN0796fjtYcBJdPbgtGSJCAAAQhAoFii7pyzZ8dUnvXsW/vko6FXkUNxwWUpYHPSNBVn0XrqaZqqc6/n71RQ+3nq2jGtO+DVyR1Cblua+cUXX6iDnjuEAc3Zn5l5kiy/bROttaps97+lunj2/X7S9pO/quopd+mJWKjPLmi+54Vn11u2Ievrf33rkbYuxu2eul2gyNOs5QFweAQBCEBgqggUTtQvgr51vtU/PmtDdhfgrHWnsLwsTbIR+DFRXJDZMXtFdQhAAAIFIVB+URcZ0JC+Rr/POgF62u6sFae2/MjrpwHEvKORA0ryCAIQgMAUEii/qHs/areR9iHnW87e6+/cpJZGzrOH7Yc0Ow3FoigaZsNiSBSn/vRgSDsUgwAEIFBWAlMh6mWdPMYFAQhAAAIQsAQQdUuDNAQgAAEIQGCCCSDqEzx5dB0CEIAABCBgCSDqlgZpCEAAAhCAwAQTQNQnePLoOgQgAAEIQMASQNQtDdIQgAAEIACBCSaAqE/w5NF1CEAAAhCAgCWAqFsapCEAAQhAAAITTABRn+DJo+sQgAAEIAABSwBRtzRIQwACEIAABCaYAKI+wZNH1yEAAQhAAAKWwOiizj/EbTmShgAEIAABCFw5gdFF3TnHlVlXPn90AAIQgAAEIKAExhJ1LrdWjiQgAAEIQAACV05gLFF3zkVR1Ol0ms2mjkQuKo2iSHNIQAACEIAABCBwCQTGFfUgCI6Pj8Mw1L4i6oqCBAQgAAEIQOAyCYwr6s1ms91uW1G/zN7TFgQgAAEIQAACSgBRVxQkIAABCEAAApNNYFxRD4Kg0+kEQaAYwjDs9XpxHGsOCQhAAAIQgAAELoHAuKKePSgXBEG32/VOz13CSGgCAhCAAAQgMOUExhL13J+0SSae+pS/WAwfAhCAAAQun8BYop79x2fk6HuSJJc/ElqEAAQgAAEITDmB0UWdfyZ2yl8dhg8BCEAAAkUjMLqoF20k9AcCEIAABCAw5QQQ9Sl/ARg+BCAAAQiUhwCiXp65ZCQQgAAEIDDlBBD1KX8BGD4EIAABCJSHAKJenrlkJBCAAAQgMOUEEPUpfwEYPgQgAAEIlIcAol6euWQkEIAABCAw5QQQ9Sl/ARg+BCAAAQiUhwCiXp65ZCQQgAAEIDDlBBD1KX8BGD4EIAABCJSHAKJenrlkJBCAAAQgMOUEEPUpfwEYPgQgAAEIlIcAol6euWQkEIAABCAw5QQQ9Sl/ARg+BCAAAQiUhwCiXp65ZCQQgAAEIDDlBBD1KX8BGD4EIAABCJSHAKJenrlkJBCAAAQgMOUEEPUpfwEYPgQgAAEIlIcAol6euWQkEIAABCAw5QQQ9Sl/ARg+BCAAAQiUhwCiXp65ZCQQgAAEIDDlBBD1KX8BGD4EIAABCJSHAKJenrlkJBCAAAQgMOUEEPUpfwEYPgQgAAEIlIcAol6euWQkEIAABCAw5QQQ9Sl/ARg+BCAAAQiUhwCiXp65ZCQQgAAEIDDlBBD1KX8BGD4EIAABCJSHAKJenrlkJBCAAAQgMOUEEPUpfwEYPgQgAAEIlIcAol6euWQkEIAABCAw5QQQ9Sl/ARg+BCAAAQiUhwCiXp65ZCQQgAAEIDDlBBD1C3kBms1mp9NJTz5xHF9IG5NgNIqiTqfTbDYnobP0EQIQgMDEExhL1Jd3D9747Dv5b2F9e3ap3mh9Y3MEz8L6tma+8dl3C+vbkn99/kb96ctG65vZpbrkWINq1jln8215D7/XgTc++04LZ9uq3L13+9d/0I5pr6pb+8u7B57lfkPwiunXOI6TJNGvZ02MWf2szWXLn4sYh2HY7XbDMMzaJwcCEIAABC6CwIiiLhpZf/ry+vwN7dbsUv3WJ19V7t5zzi2sb6ugLqxveyWlSuXuvR8++s3y7oEKqubf+uQrVXoR9erWvjZ0aiIrzNm2KnfvaSu2h9m6MpzcIfTrSZIk4zjoJRB1iVVEUdQPEfkQgAAEIHDuBEYUdauI2icr6pW79xqt36vA5ypidWt/YX17YX3b84yzxpd3D8YU9WxbthXbhzFFPUkSibrL/3a73SAInHNxHGu+1XstLyXDMOz1eloyTVNbWFFrwpYXBY3j2Ea87fJC29ICSZIcHR1Ji5IZBEG327Ud0JBDFEWaP7hXzrlz8fV1mCQgAAEIQGAYAiOKunVttRkr6tWtfRXy3Nj19fkby7sHs0v12aV6/elL65dbuRXjQ4bftSeeMOe2ZcPvGlRwznl1xWbuELS5bMJKqfc0CIJOpyNKnySJ6qstNqSnbk1pOgiC4+NjCXrbdHzykVY0nSRJr9cLw9BzrLOS3Gw22+328LF0bcKOizQEIAABCFwogRFF3Wq29s9uaaui94td22WBF4HPFfVxPPXctmwrdrOgn6jbEemQ+yWyom7dXNFRq7ienSFF3dpM01TMSlRAPOkoisTPtgf3xNuWfNtPm86KunNOHP1TfXQZS5IkxN69aeUrBCAAgYsmMKKoWxXULqqnLuquQXWrqVrYOt9vfPadFnbOWbmV8mOG33Pbsq1ozwd46uOIusS0ReRUyzWhTDQxvKhrbFzrOufCMGy3281mU5W1n59thdymc0VdmpB9hNx2bR+0aZtJGgIQgAAELpTAiKIuB+WsEjvnPGnUmHZW1G1JqWgj8FZuZfDjiHq/tmwrdo1yEZ66PQcex7G61MnJJzvBAzTVFpYN9VyH+NWrV+Km68/JckP9VshtOgzD4+Nj2SOwLUpaFw3ZR5pD+F1RkIAABCBwaQRGFHXnnOi6/UmYlU95KjHz7Ia0J/O2cD9PXRvStcIARlaY+7U1YE9d29If4GWHMKB1iVR7YWo9pNY++cjmtI2K65E655zN9+x47doIvN2el3yr99ZmmqbyyAq5TWuwPU1TccrtATpdlHidsV+HXJfYKqQhAAEIQGBMAqOL+pgNU73cBGQNYVcV5R4vo4MABCBQBAKIehFmoZx9sJsO5Rwho4IABCBQMAKIesEmJK879jfu+kvxU4+q5Vm67Dw9fn/ZDdMeBCAAgakkgKhP5bQzaAhAAAIQKCMBRL2Ms8qYIAABCEBgKgkg6lM57QwaAhCAAATKSABRL+OsMiYIQAACEJhKAoj6VE47g4YABCAAgTISQNTLOKuMCQIQgAAEppIAoj6V086gIQABCECgjAQQ9TLOKmOCAAQgAIGpJICoT+W0M2gIQAACECgjAUS9jLPKmCAAAQhAYCoJIOrDTrvcUGJvQhu2JuUgAAEIQAACl0JgWkR9+JtA+10vdu6ivrO41r6zZ//bWVxzzrVqmzZzo9KoXJt9sbLVqm3KK9GqbX5961F1Zl7ytfCLla3KtVnn3Opc7dvbjyVfMm2OzXfOVWfmv771SOv2a8uzsFFpXMr7SSMQgAAEIHAGAoi6D6ufqPvlzul7dWb+y/oHq3M1z16rtika/8cL5q/NtmqbrdpmdWa+OjPfqm2+WNlSUff0tZ9BsW/NSs5GpfHk9bef37wvfejX1upc7cv6B9WZeefcRqXx7e3H2T57Q+ArBCAAAQhcMoHCiXoYhr1eT+4ik9u44zi2Qe8kSeI4FkxJkkhJLZAkydHRkViQzCAIut2uXm6WpumA+828+9B6vV4Yhs65KIrEvANMeAAAIABJREFUgtYNgqDT6bx69SpN08PDw+7JJwgC51x2CAMmtZ8GW/Wtzsy/WNl6f+HNjUpjo9J4f+HNAaK+OleLG4/6Ka41K736qLqxOlfbWVyTNUS/tqyoi3PvLSYGjJFHEIAABCBwOQSKJeqilCKNmg6C4Pj4WMTVpuOTj2DSdJIkosSewz1++N05F8exFfVutysrjF6vF0WRdFK77Zyz6X7TObyo/5e52s9ff/vnr7/9n2dviGPdL/wugX0J0XvteqIufn/l2uzqXO35zfuVa7Mi6tm2rKhvVBq5xr22+AoBCEAAApdMoFiirg6xuMXqKKtm6/3cotlZ/9vz49WnvwhRFxUXpdfVRr8h9JvX4UW9OjMv/nTl2qwV9X4e80al0b6zp5vl0gFP1HcW12SrXm2KqGfbsnvqKHq/2SQfAhCAwNUSKJyoqytsuYRh2G63m81mkiQSk282m+12W9x3W7IIop47BNtJmx5G1NWNlooqwOKp9xN12Yx/sbJlC1hR9xz99p29ncW1fm1ZT932nzQEIAABCBSHQLFEXXajRbY9Rq9evRI3vdlsyqMkSXQrXQv3E/UwDI+PjyWwr4X7JawRW8YLv+d66gOGYE1p+kJFPbv5bUXd02mR87W5mxKHlx7qAsIrrP3XAwcaFLGPSEMAAhCAwGUSKJaoq0JIXN1qtoS1rd57EXh5ZPXYpp1zeqruVE9aT7rZ+L8X6td4uxd+HzCE3HnNinr2J21Z71n8b8/Vlki7RN31d27WTZffy+mheo29S8dkBfD/3Pg/PFGXtgaIuuA6lWru8MmEAAQgAIFzJFA4UT/HsWHqcgjI6gpP/XJo0woEIACBAQQQ9QFweHQ6AfkRIIp+OilKQAACELh4AlMq6hpgt0H1brc75Kb7xc8LLUAAAhCAAATOTGBKRf3MnKgAAQhAAAIQKDwBRL3wU0QHIQABCEAAAsMRQNSH40QpCEAAAhCAQOEJIOqFnyI6CAEIQAACEBiOAKI+HCdKQQACEIAABApPAFEv/BTRQQhAAAIQgMBwBBD14ThRCgIQgAAEIFB4Aoh64aeIDkIAAhCAAASGI4CoD8eJUhCAAAQgAIHCE0DUCz9FdBACEIAABCAwHAFEfThOlIIABCAAAQgUngCiXvgpuroOnukSetvNZrPZbrfDMLSZpCEAAQhA4KIJTIuoR1Fkb2cfgFUuErUXtw8oPPIjuQpdrzZ3zm1UGl/felSdmXfOydXmcj+6NLGzuKZXpNt8e6X6t7cfr87VNioNW6BV29RWsmbt3e2t2qYdThAE3W5XOUhd7YMWtvn27vaRFwS2D6QhAAEIQOBMBBB1H9fliLpzbmdxrZ/6blQaT15/+/nN+6tzNenfzuKa6KhdDYigqr5KyQGinjWrki+mrConSWIvVK3OzH9Z/0D7I21JZ6RWtkAcx0mS+Hz5DgEIQAACF0agcKJuL0UVNzGOY+tkW7FJkkTuTtUCSZIcHR31er00TSVTPE57xeoApZHbwbVwr9cLTz7dbleDydqfOI6Pjo46nU6aplJSpik7hNzpW52rxY1HIpOeIn5U3Vidq+0srqmTraLunGvVNkXIPf2WVrxMlW3nXNasPrVrBedc1s/2ephta6PSaN/Z0w4754IgOD4+Vm65EMiEAAQgAIFzJFAsUQ+CoNPpyKXmmrbaYNPxyUdYaDpJEtFXz+EeM/yuKwlrVlYAuvKQtYJ2W1RNh5OdM6ujVomrM/Ot2mbl2uzqXO35zfuVa7Pi1ouQW5faKr3aF3HVOLkKba5ZFXW7wnDORVHkLX1smF3i/LZXEnV48vrbXthAuWn3SEAAAhCAwMURKJaoR1GkXrJ1f1WzVWxEXG1hESGrIjY9pqiHYdhut5vNpiaccza8rPn9hpA7hRqBV3G1Slm5NqsReLunrkFyddmtcbs+ELdevGddAVizuqeuOi2mFLi1rOmdxTXZ/heb2g1tQksOtqPFSEAAAhCAwLkQKJyoew6iDFIlM0kS8Yz7na+2Qm7TY4q6OuhWpfqJeu4QcmdLYtoblYZuV4v7nvWzVS93FtdUgHVNYI3nino/s7qYaNU29ZierFfshrq175xbnat9Wf+gOjPvhdzVmpa3uDSTBAQgAAEIXBCBYom67EbriWs75levXomb3mw2JT9JEt1K15JWyG06u0msVbIJW1GfyrLAhtOtqGuVAUNQUzbRqm3+rv5AT8ypXkoZjcCrqEsYXJxvm1abuaLez6zK8Opc7dvbjzUGoBERNWsT6prbjXYvgC/ldREmX2Vt1O12ZYfF2iQNAQhAAALjEyiWqMturgbVrWZLWNvqvReBl0cqrs45m5avYvlUT1pPutnjb3Lgzta1p+psvo3A2yHkzpbn7Kp4S2GR7Y1Kw+Znf/wmnv2An7TZ6vqTuY1KQ0XdO42fXQNJT6Qhu3Euq4H2nT2NH+gw7QEIzdRDD5pDAgIQgAAEzotA4UT9vAZ27na83217e+rn3tyVG/SWRCP0x0YytHoURXjqSoMEBCAAgfMlgKgPy1N/yaYVckVLn056IruIOdOIsr6+GETRz4SRwhCAAATORGBKRV0D7BrqT9O0n95IOD37tNyiLr9WlzP/Z3qlnHP9jjGe1Q7lIQABCEDgTASmVNTPxIjCEIAABCAAgYkggKhPxDTRSQhAAAIQgMDpBBD10xlRAgIQgAAEIDARBBD1iZgmOgkBCEAAAhA4nQCifjojSkAAAhCAAAQmggCiPhHTRCchAAEIQAACpxNA1E9nRAkIQAACEIDARBBA1CdimugkBCAAAQhA4HQCiPrpjCgBAQhAAAIQmAgCiPpETBOdhAAEIAABCJxOAFE/ndEIJbJ3yqmR7D+Kro9IQAACEIAABMYhMNmiXth/fX0cUW/VNuWGU/nfjUqjcm32xcrW17ceVWfmnXN6ObpXsn1nTy9EH+edoC4EIAABCEwoAUT9siduSE/d3nQuov67+oOdxTUr6tJ11fjLHgntQQACEIBAwQgUTtSbzWan05HL0zqdTrPZlJvL9Tq1OI7lArFer6eZaZpKvnMuSRKvus1M07TX64Vh6JwTf1oKR1EkU5MkyeHhYbfb1XvbwjDsdrtSRTqjHcvOpvZfW5Ey9l647IVvWTtZUX9/4c1WbbNybdZTce9r1hQ5EIAABCAwJQSKJeqiiEmS9KMfBEGn0wmCQApkw+/xyUefitLrVehiX/Q7iiIVVyvbSZJofpIkYkET1kK/TjrngiA4Pj7WdYC1P7KnvlFptGqbG5WGp+Le1wG94hEEIAABCJSbQLFEvZ/gWZfaesCeqKuXrB68rA88UVelV+feSrXqt534MAzlZnFN2KfZtCfqtp/9xugZyXrqIufPb97/6Q9Wvqx/IPvr2Wi8Z4evEIAABCAwPQQmQNSDIOh2u+JeDxBL51yz2Wy32+of6yza0LeGAaxPf6qoawFbS+1nEwP6OY6oO+c+qm68v/Amop5lTg4EIAABCBRL1EU71YGW6bGx6ziOraceRZG3vZ0kiZcjG+q6Za5TbsPvNp3rqcsG/PeRfxv8V1PZhCfqal8WKBrez1bUnFxP3Tm3UWnEjUenirrENjySapwEBCAAAQiUkkCxRF12o+WQWpqmKs969q198lFfXBYBEmwXAbM5aZqKlltPPU1T66xLXbtQ6Cfqosdat9/bIMU0/q+WZQi9Xk8WInosIGvH+6Ga/qRNfq7m/bytX/hdhnxqb7OtkwMBCEAAApNLoHCifhEorU5bv/9MbdldgDNVvJLCuTGPK+kJjUIAAhCAwKURKL+oe/KmkfCzItbTdmetePnl4zi2v/G7/A7QIgQgAAEIXAmB8ou696N2jYcPj1v2p72NcBFODbNLgnD38FQpCQEIQAAC505gKkT93KlhEAIQgAAEIFBAAoh6ASeFLkEAAhCAAARGIYCoj0KNOhCAAAQgAIECEkDUCzgpdAkCEIAABCAwCgFEfRRq1IEABCAAAQgUkACiXsBJoUsQgAAEIACBUQgg6qNQow4EIAABCECggAQQ9QJOCl2CAAQgAAEIjEIAUR+FGnUgAAEIQAACBSSAqBdwUugSBCAAAQhAYBQCiPoo1KgDAQhAAAIQKCCBMou6vZzt4tAnSeL9s/DaVhiGx8fHA25Z1ZIkIAABCEAAAuMTQNR9hnKrm1zE7j/L+z6yqFdn5r++9ah9Z0/++/rWo+rMvGS+WNmqXJt1zm1UGi9WtuqzC7Zk+86eFM7rDnkQgAAEIDC9BBB1f+7PKup+ffN9GE+9OjP/Zf2D1bma1JOvcePRRqWhoi4C75zbWVxr1TZNCyQhAAEIQAACfyZQLFEPw7Ddbh8dHclNpnEcS0+TJDk8POx2u2maaqxb1FdKdjqdZrOphfVGVLEQx7FeimrTWQvehaqD72kNw7DX66Vpalv3bnrV3v4Z+V+mckX9/YU3P6puIOp/iYpvEIAABCBwCoHCiXqv1xMBtm6uDXHLTrnosVV9qZWcfGTQuqduhVzTYkHFXjlJ/vDh9yiKrKiHYdjtdsMwFHU/dU89V9R/+oOV5zfvr87VJPyOp66zQwICEIAABAYQKJyoqwo2m812uy3qqPKsIwmCoNPp6Bk0UdZf/epXx8fHUsU5p7VUyJ1zmraLBjXrnBtT1NX+OKIuct6qbSLqdmpIQwACEIDAYAKIeuABKoioV67Ntmqb7y+8qYfm2FP3ZoqvEIAABCDgESiuqNuwtvrc2nuRXgm/a1oT4pGnaap76hIhl11wCbnbwmpWEtnmvAL2q+2ncy6KItlHD4Kge/LRcIKtpenc8Lucm9tZXPtd/cGpoi7nAIbfL9CmSUAAAhCAQMkIFE7U5eiZPRBnA+mWvqimnInTrXE9vCbCLKKuJbvd7uHhoRbWfO+wmxoZfFAuiiI9kWctJEmSpmmv1xO97yfq/X7SpofhvZ+39fPUpRt6vMAiIg0BCEAAAlNFoHCirnvqUzUN4wxWliZ46uMwpC4EIACBchBA1Cd7HiUqgKJP9izSewhAAALnRABRPx2kCKeNtOtu/emVKQEBCEAAAhC4LALFEvXLGjXtQAACEIAABEpIAFEv4aQyJAhAAAIQmE4CiPp0zjujhgAEIACBEhJA1Es4qQwJAhCAAASmkwCiPp3zzqghAAEIQKCEBBD1Ek4qQ4IABCAAgekkgKhP57wzaghAAAIQKCEBRL2Ek8qQIAABCEBgOgkg6tM574waAhCAAARKSABRL+GkMiQIQAACEJhOAtMu6nLFWe6/nR4EwfHxcRiG0/lmMGoIQAACEJg4Aoj6H69PHU3UdxbX2nf29L+dxTW5HbV9Z2+j0nDOVa7NvljZ2qg0WrVNLSYJKTBxrwsdhgAEIACBIhOYdlEfMDdDeuo7i2ut2qba2VlcixuPnt+8X7k2q6IuT1fnal/WP6jOzGthEhCAAAQgAIFzJFAsUQ/DUO9T99K9Xk/uSUuSRMev96d1Op1ms+mci6IoOflI4VwXXKo3m81Op5Omaa/XszF2uZ5cqnuPtF2byIp6q7b5UXVjda6GqFtQpCEAAQhA4KIJTIaoJ0mSlef45COANG33yKMoUrHvx9Fzx0XRpS3vUT8LuaIuIXdEvR808iEAAQhA4CIITIaox3Gcpqn10dXP1mvO5ekwQm45esptq3uPbC2bzhX172Pvz2/e/+kPVmRPXcoTfrfcSEMAAhCAwLkTmAxRl2GLFy7Od7PZbLfbNmyuZU71zi1ET7nPS9SdcxuVxpPX30bULW3SEIAABCBwoQQKJ+rdbjcMQ3HEu91uEAR2/EEQdDodyUySJKvfVpVtxX5pT9TDMLQdGHlP3TlXnZn/sv5B3HikB91zPXVZqcRx3K+H5EMAAhCAAASGJFAsUXfO6dm3w8ND0W8v0q6b67n5w4u6PRBnj8tJqD9N0y+++CI3GKBk+/2kTQ/DS4HBoh6GYa/XszsLap8EBCAAAQhA4EwECifqZ+p9CQrL0gRPvQRTyRAgAAEIXDkBRP0qp0CiAij6Vc4BbUMAAhAoEYHyi7qG0/WcvHeQvkSzyVAgAAEIQGCqCZRf1Kd6ehk8BCAAAQhMEwFEfZpmm7FCAAIQgECpCSDqpZ5eBgcBCEAAAtNEAFGfptlmrBCAAAQgUGoCiHqpp5fBQQACEIDANBFA1KdpthkrBCAAAQiUmgCiXurpZXAQgAAEIDBNBBD1aZptxgoBCEAAAqUmgKiXenoZHAQgAAEITBMBRH2aZpuxQgACEIBAqQkg6qWeXgYHAQhAAALTRGCyRV2uOMveql7iGQzD8Pj42Ltm/nLGG0URV8ReDmpagQAEIDAaAUT9L7htVBrtO3vy37e3H6/O1eSxzW/f2bNXpH97+7GUf7GyVbk2uzpX05z2nT3J3Flc+/rWo+rMvHNOTKkF+bqzuKb9WJ2rfVn/QAprpiTkDni9Ud45V52Z//rWI9slm+nle9YGfG3VNmVQeje8FE6ShDvlBnDjEQQgAIGrJTDZon7u7DYqDZFhUV/VdZuvjXryrPnOOU+YdxbXWrVNEfKfv/72i5UtFfWPqhvvL7z5/Ob9yrVZseDVtWY9TV2dq8WNRxuVxte3/vi/UrJybVbtV2fmv6x/oEsTa2pAeqPSEC2XFYNads4FQXB8fByG4YDqPIIABCAAgasiUCxRD8Ow3W4fHR3JNanqFCZJcnh42O120zTtdrsSfI6iSIp5MWHNT9NUnVq9gFWr5xL3xLtV2xQf2suXuvo0a8oT5lZt8/2FN3/++tvVmfmfv/62Cnx1Zr5V26zOzD+/eV+l16urxvsF3j3ptV3NhgHU2pCJ7BjjOPaAD2mKYhCAAAQgcNEECifqvV5PNMNqWJIkKsaet+ppTBRFvV7PcyXtZrBNZ+FaRXTOiYetMXONzG9UGtYhztrxhFlU/Oevv/3+wpsblcbO4pquFSShOVkvX43367kn6trnncW1FytbT07WEGrkTIlcR9/Oy5msURgCEIAABC6aQOFEXU+BNZvNdrst8uwJuYXiiXpuySRJxKeX/x1wsG6AqGtYXlr3pNR2KSvMIuqrczUJs4uE22WBPsrWVcvxyUe/asLriYh6q7YpIXTVeC0/ZEK6Zzf7pWIQBJ1O50pO6g3Zc4pBAAIQmFoC0yLqGocfPNOeqGvw2ct3zvXTPLFvPfXKtVkbXZcAwM7imnekTvfvbV3b2yFF3Qu56xCsqVPTA0aHqJ9KjwIQgAAEropAcUU9iiJ1qXP9b0HmeepRFGmgXpnGcZzN1Kc2YcXbO7LueereSTprxPO2+4m650NrBL6fqA8ZfrcxczlJp7v1cnheqXp91q/i+md9dCkg5x6azaaWl0MMegBC80lAAAIQgMAlEyicqPd6PQmSWxnOFXU9++Ydl7P56qDbCPwA+RE31/5ETebD5tvfidl8UX3P/36xsrV0/QdZT/1Xf/0/9Iy6NiE/e/Ms6I/KspvZor660299fflZneZIE/Kzfgs2923bWVxTm+07e/pjPCnsraKcc2EY6kmIXINkQgACEIDA5RAonKjrnvrljH+yWsld3JxpCHEcn+qpDzCY+5M2WSsMWCoNMMgjCEAAAhA4RwKI+jnCvHBT2X98ZvgmxZ8eR9Gdc9lVhcRFUPThJ4KSEIAABC6OAKJ+cWwvxHJ2S/tCmskz2m9TP68seRCAAAQgcAUEiiXqVwCAJiEAAQhAAAJlIYCol2UmGQcEIAABCEw9AUR96l8BAEAAAhCAQFkIIOplmUnGAQEIQAACU08AUZ/6VwAAEIAABCBQFgKIellmknFAAAIQgMDUE0DUp/4VAAAEIAABCJSFAKJelplkHBCAAAQgMPUEEPWpfwUAAAEIQAACZSGAqJdlJhkHBCAAAQhMPQFE/UJeAbmNVO+Iu5A2CmY0+8/Cj9PBK/zXcMfpNnUhAAEIXC0BRP1C+J+vqG9UGvb+08q12RcrW3rfudyUulFpyEi8+1g1Xy6A1ztVW7VNe/O6PNU746UJ26i9ENa70dU5513+JtWlLe2nvaZWr6/1eqv3zIrNJEkuZHowCgEIQKCkBBD1CZhYUT6V59W52pf1D6oz8865yrXZVm3z/YU3VQ6tVNvVwM7imifGtqQn6qtztY+qG63aZm6jO4trKv9yn7p3Ye7O4ppo+epcLW48Wp2refYVutcHzXfOyY2uUxXtsMMnDQEIQGAEAsUS9TAMVR68dK/XS08+1ntLkkQy9UZRuUlM8wdLgvjTYkEvD5XrTb1MERjJ7Ha7QRAIa22o1+uFYahSlKap5khJ25b0KgiCTqfz6tUrr63cWWzVNlW2dxbXNC3qW52Zf7GyJTJvZVI1VVxnVWhpwpb0RHdncW2j0tioNGxDupKwa4Xc+1h1CLbdjUrDLgVy+6AVJRFFkc6s94ivEIAABCCQJTAZop4kSVae45OPDEnTNu49WBKazWa73RYlVi4206Zzbx0dsO8bBMHx8bEaj6JIlwJhGHa73TAMZfUgomVXMNoZm1AdtTLpnBP1dc6pV22lWl1qm6lmvdB3+86eiK54/9WZebtWsOEBu8KwlNSyJmwtG35Xdbd98AIJzjkPo5olAQEIQAACuQQmQ9TjOE7T1Pro1nUWT1eeDhZyD4H42eqjSyRZQwJiVhYTYRj2ej0VZrEjqux55PrIirquOdSV/76fVrFs2uukfNUIvJVJK9XqVVuZVO1Ul90at9Wtp25dal0r2D11dd9FdzudjoYuPPtf33rkhQdky+DFypY1IrV2FtfsLr6wyi68bBOkIQABCEDAEpgMUZceixcurm0/B/FMoi5m7YphgPMtAtbtdj0V1+WFjSV4Ij2+qItT3qpt2ti79X3bd/ZEEVWqRd1FO3VNYOdeS0qmanmrtqnn6dp39sSCLiZE3fX4m2wiZEU9t0Vt3Y5CM7UJzek3y1qABAQgAAEIWAKFE3UJTYtSep6x5xcmSZLdcB1B1MVBb7fb3zcqzrf13S0sSZ+6F5CNG9vwu6at8Nt0tkXJEW87bvzZ9xWN1/LiVVuptr6vTUsVW1I99frswpf1D+Rom3NOI/BWcVu1TY0B5OquCH/WR9d2cz14G9WXktkVgyzsBk+QAiEBAQhAYNoIFEvU5dSVxL0PDw8lrquusI2HaxxbMtM0FUd5eFG3B+Ks8y2RdjGrqwrx5iVTdwHs2TddXliz9ricWtC2rJDbdL9XUHbTNUDtSbK48i9WtqwqSxX1quXHb+KF9/tJ23+ff0MFW0PlO4trVtQ9Lzz7C3XP1xeDNq6gei+mtEve2LOzKbOjU+CV5ysEIACBKSdQOFGf8vmYxOGfespvtEHJYs5uauhKDk99NKTUggAESk8AUS/9FF/GAL1/fOZcmozj2PPIJdqBop8LXoxAAAKlJFB+Ude4twbqvYP0pZzXyx9U7lGDkbsx+MTiyGapCAEIQKDcBMov6uWeP0YHAQhAAAIQUAKIuqIgAQEIQAACEJhsAoj6ZM8fvYcABCAAAQgoAURdUZCAAAQgAAEITDYBRH2y54/eQwACEIAABJQAoq4oSEAAAhCAAAQmmwCiPtnzR+8hAAEIQAACSgBRVxQkIAABCEAAApNNAFGf7Pmj9xCAAAQgAAElgKgrChIQgAAEIACBySaAqE/2/NF7CEAAAhCAgBJA1BVF4RLZi0cL18WTDsl1qNyzMuTsjIkriiLvnpsh2y1TsR//+Md7J58f//jHVzWuJ0+efPzxx2+99dbld+Ctt97a399/5513LqLpd95559mzZ59++umzZ88uqInB3ZYOPHz4cHAxnvYjUCxRr9y9d/vXf3jjs+/kv4X1befc7FK90frGy3TOLe8eaOYbn323sL4tJatb+8656/M36k9f1p++vD5/Q782Wt/MLtWFhW3r9q//ULl7T6pIdSlT3dq3VTyI9hqxJEnkSnXv9vdOp/OrX/2q2+3aK0S1sGfQfg3DsNvthmFoMy8ibUcx2H6/S9/HVKnBjZbv6fi4shfYXzKlJ0+efPqnz3vvvXfJrTvnckX9vffe29vbuzSZL6WoC9grmVN9ixB1RTFaonCifuuTr0R3F9a3RWtnl+q3Pvmqcveec25hfdtT2eXdA5Xh2aX6yoef//DRb67P36jcvbe8e7Dy4eci6pW793746DfLuweyUHDOVe7e07aqW/si/5W79xqt30tbtt1cuCqH1qXOvQU8iqJutxsEgXNumNvHc43k9mH8TB3Fqab6ifqpFSlwvgSucCJy1fR8RzeytUsW9ZH7OX7Fi/PUL87y+KPGwpAEiivq4naL/62ibkVXRmhFvXL33sqHn1e3nlbu3nvt3cevvftYRb26tb+wvr2wvr28eyAVrajbtYIKfHVrXwvn0hQ59ES6nx4nJx/n3DBull0laNN6h6yuD9Smc862GwRBt9uVq2Y1Kp4kydHRUa/XS9NUggriMtobabWwNqqJJElsSdsHyddQhNya2m63e73e4eFhr9eT5pxz2SGo/VMTVslsWgYufdBe5bbVbDbb7bZ0SSH0a7efWeWgg5I5lQ70ej0NrkRRpMQUrFZXXDp3UljNxnH86tUrmUc7Lunw8EuxfgMcLf+dd97Z39/PxpxF7MV7F3f5nXfe+fDk8+zZswcPHjx79kzyHz58+LOf/Wxvb88L8L733nt/cv4/VU9RQ8GffvrpkydPpM9aUnPeeuutjz/+WKvbwtaCms2O/a233trb23vw4IEYUcvvvffek5OP5IsFtWkDA0+ePPnZz3727NkzLS+FHz58qB3TkPKTJ08ePHggfZYY/jvvvPPxxx9ruPvhw4fWuNdhK70SNZG2LAdpa3iztm4Wgg5BGWaH4HVSvz58+FB5alpfDwvWOadBIG3IOWf7ppsCT548sTw1rcB1c6RfW9asVrdvslqwHdMO6ACLliiuqKvQWo9ZFVc5ZkX9f1v7H9Wtp3/9IPyr+n+tP305u1S/Pn+QR3ItAAAgAElEQVRjefdgdqk+u1SXHM9TX949UP2WIPxfPwjVj9e2vEQcx+2Tj/4d9/5AW+UQHTo6OtK/2p41+zU++dgcu5Oqabue0LRIl3TJppMkEcmx8i/iN+QerZVS2zfPoIaXkySRfYfj4+MgCLTbzjmbtqYGpG3rNp1rymZqWvop/L0+Z9vVWvaRnRdN5179bslbC/qGqKhLT6zqy3TIAkiKZReCOt2e8Yv+musNy99B/bMoqqZBVAlTv/fee7IakL+5Knjy5/69997TP6BWh548eWL/uNvRqTxoZrZvItWyBLFpraIJ+fsuOmolUxYQ0gfPvvdVh/ns2TPpmwKRVmwHbOhexUkTwrPfwEXkZE9dUIv9H//4xx9++KEsC2x6eLPWspIZMDU6ZdqE1rIJO1OaltdDZ9+uYLzhy9QIDTs1tlFNyyJMWtd0blsWkU1rLTsEWRZc2s6ObXqEdOFEXffUNcxu99R1j1yHmhV1kXBx8UXCF9a3taJG4O2euiq6mF1Y337js+80qq9teQn5s2uds+yfbFvF/pm2+dl0kiT6R1+eqofn+XNa0mqMuOPqJmaFwYrE8D6flVLbZ08gVW+kFftVu2SXO9bUgLRt3aZlDeH5srm4vH4OaEt2SXq9njUr1e0QRH0lLuK9Buq+q1prc143giDodDqyNSPLHVl22HmxabHj1VLjpyasd6J/Sft5J1lruR6klavvBy5q9w//8A+i4vIHV118/bPunNO/lQ9PPtKc/ZsuKwD182x/rB3J91RWeqIuphcYsKayYqaLiaxNreg98oZpZUb7oE6ePlVrloZisU9tWifRrhs0fqDNiRCqNU1YU17aqqY86jc1uUPwrKkFnUGdNX0fZOA2/GNfAH2dRFBt92wHNK2OvkCQNzy3rQG4nj17pusVGYIA1+nLHWZxMgsn6ln/WD11UXdPgK2o2+i6nLATUfeO1IkFDb+LulsJ1xYHz5P8qbX75YNFXeVtsFnRg6yoezliRBxK6xfmOo5iUwXmqkQ9dwin0pACVshtWp92u11VVl3rWOOemtpH/dJWsC3kbHmVfG+MspKzsRCvG548686LFXKblqa9Wtn+XFCO9du0iYsTdWlC3GVdgkimyoN2w1NZ0QOVEy2Wm7BqIbHWXO/c1vWaE11R/ZCvw3iZalPFzOqoPrUJ6a3MhTr0/TR7eLPZxY1zznZGTQkiu6Sw3fPSdqY0raDOXdQViHYjt61+uKRWrorL8D/99M/bQ9pEoRKTJOrOuexx9FNF/Qd/8990S94qvYq6HKRXV17K2Cr9Jkz/1MZxrEF170+2rTu8qKvbrdXjOLZeo+Y3m00RsFevXkmm6JDqt5a0Qm7TqiJasl+i39C8fB2m56n3G4Luf3ty6HVDxiVldCvBK6NantuW10+v7oCvavbUny1kJ06c/na73Ww2pQmvG/JV5sum9e3K3SLJLt2GjwMNGOmpj+TvmqeUkil/4jWtf0k9tdM/61YY7FrBprU/3rpBxMbrhraotcQby/6V1wKasKJu7XjKreU9D1LHonV11LpT/vDhQ3X15Km1Jmlpbm9vL3tqwRbW3tqtCtGhXKEd0myuqNvpsOl+Q7D9lLRGd2wYXEGdKuo6Rnm1LEN5AWTNJwN/+PCh52R79rXdAbh0CBqw0RxvlWPzi5OeMFG3vzrz/G/vHJxq89L/9dQKtlqwoq6H8mRizuSpSxXZPw6CQP4ua5BWxX7Ic+9iLVdobUjZanYcx+qhSnV7Ak6XAlbIbdp22JoVU97/6uEvMWvrypCjKOon6hItUDK2LTFrc7x25avoVpqmR0dH7XZbzg1oZpqm1iHO4pLeDl46aLu5Zr3xiillYvcUZAkig9XZ8aqnaSoWbGEdwmBRt0+lz0My1AGOnJC/rV6MV/5ESqb8qdW/nipvdk/dlpSe6Pkm/aud25D8VdXW7Zk4UVbPsp6q+/TTTz1f3xKw/dcOZJVbqlibatYbpmqeBoTl2KDseetT2wfR1I8//thbrHhlPOm1kmZDylbbZHSnmvUsa7vZqfn/2zt/1zqO9Y1//4HFGCdykEksEmRMxBV8xbeLK6kzgpDWqlwcMKSI0pgEYggEwqow3BTq1JzClSGlyK0OcRrBbQIqTnmq40qdqlPt98ZPeHjuO7vrlc4P7Z7zCGPmzM68M/OZd99nZ/ZIw4cYlqlJkO2PP/749OnT4B4qumHGuSZmB7755hv+gj4H+/3333/99dd8miHwn3/+GZl0RW0LafxG/s8//0xcbEtdS2e8xotqICzyUrtEfZEjb3NbV5KfNg+kYd90Fd6wyioXS98+ZFnWFYa6Um/PJHLte7Ndgv412Vq4Uj/nZPZKfZhJ4ZZM00zGMj8jFvX5sZ3K8sL++MxUvZxFZSypGy6gZ9Fg523oRgsG0yGGFvUa/+NOdU2Za1yak9lr9GTKKhb1JgAt6k0o3UyZ0t+qmndXdNuZW+XcE5536wu2r/veHCx3yxfcmYbN3YhXNOxbk2IW9VJK2ODlJnBpmWtkzsnsNXoykyoW9SYYLepNKLmMCZiACZiACXSAgEW9A5PkLpqACZiACZhAEwIW9SaUXMYETMAETMAEOkDAot6BSXIXTcAETMAETKAJAYt6E0ouYwImYAImYAIdIGBR78AkuYsmYAImYAIm0ISARb0JJZcxARMwARMwgQ4QsKh3YJLcRRMwARMwARNoQsCi3oSSy5iACZiACZhABwhY1DswSe6iCZiACZiACTQhYFFvQulmypSe1XYzXZldqzzOLjXJ492yLOv6H0NNRzfzHMUFYjz2beZttdPg8t0gOMlJj3ZU8no0n28QJeO0EmiXqONc1O3jc/zjkalrO3v/+Oe/kbnx5AUGoEevbh6eIHN994DVt4/P13cPcAq7ZtKCNvePf/57bWcP1VlAD2tXakjrPcaTtsPxmuPx+OXLl5eXl3pgCQunNpkzzYEubT7kraGo45zW9x7GmmVZqRuow2wfn2NCdbq3j8/pXWph6+j32/cfVplNvQs2WUvP89Xm4F3BLGuVlqQnVCVuStRb4l3T3CClx9xVcV5kfnNRb36DLLL/bqsNBNoo6lBi0tHDzjVNxdXM9d0DBmtaQGLjyQtqP05b3zr6nfqNMuu7B1tHbz7/6TdG9lBAbVLUdcVQGvL6/T7PNQ+xWA0yXWqEV9+bmLL6e+3PqUAg0zDylrqBiit7C+0M3gWhTWe51GzqXbD5+U//ggW2C59Uf0M3aJa9quqAFihNB1ylZeaR2QbvmrIPDV1rHvSmscmAAyMdHcU0BFy3CYEOiHoQY35kfERgRVRNwy4psCJyNp68SOUf1T99miP0swka0QTusRBbq8LN8N1Pw+drfUpgi3meTyYTHCbGJSzO3EQmNgPCMWt65hgLc38PveUBZXzyYEnm7O/vj0aj09NT9AEWBoNBMMWOsdtMsP+sgkvML4qCzeFSiGI0pQnOkboBxVVLXk/U1WzqXbj68Vffbh6e3Lp7j+2mJdET9pYdU/vMrEmkuDiJOteDweDPP//8D8/xeHx2dlYURc3UZFmmZlmSbsCN/ZZ41zQ3iA5KXU6P7CMBssU9Qv+kEeZMf4P0+320Eg5FVObppZBT4zm+tCIE2ijq3CrHQifEQYZL5q/t7G0dvVnb2cuyLN0g5UQGUWf1jScv0OL67gGMf/TFlw+ev7p19x7L0IgmBoPB6N1PnufMD1GAAobH6rOzM+awSpoYvPvRfMRc3cPXqwjKo9Fof38/yzL0IRRWm0zzUUOf+pmZZRllGzbRedrXWuHhJnSPH0M41k3U1EKaQztMcI7UDZpsv3MZXbX9zsV3jXfxQWHz8GR994CiHpxNe0v35vY7e5vuIrAiEjW4dC4wcZPJBFtEOH+9Jvp3zrvowORzpSEEVrhlRqMRbmTIM9K8F7QKM+dxg4QHWd6AaCtMYpMbhIicWBECbRT1ENoYtTElKuqIj3xhCVFP19+oGOKsmmVoVuPruwdaJnUIPEHr8qhKUFEX5YPWpmaxmg/Fwq3OWvoUr4uG8XisFsKjRlEUiA4MT1im9Pt9jWh4Vri4uOj1ehRyNs1BYVmTxtlQEh+DqOu40gjV6/XG43Gv1ys1hUxKsroBxVUrcpY1s2r3u9Qs3YMWaHNtZ+/B81cfffEl3t1sHp7woYGFq9pCAezY6yi0ItI1uFR1KADM1Ir1ZvVqa71rOByqe3O82nkSSzeiiIXldaMC5WF/8TeIzlS46fQSet7kBuEYnVgRAh0Q9SDG/EjF3Tw84aInDbucSFZEjn5kaGb1tZ29z579wiZoRBO4x/R9eb2op6Kl1jTdMGZVrdtCLAgLEW2IO37cnr2qqGNQ3333HRc6aj9Nz0PUsaRWN5iJqKdm6R4cFz0ny7LPnv3y8VffQtRLX+7UizpsqluyFSY0rAd3CkKFkszUirTGROnVNnvXlDcIsZBAnufc6GImf6cAMo+H13nfIDoX4UbWS+ikRV0ny2kQ6ICoh21V7oVScbF7ifV9GnY50yFcai2GZla/dffeg+evto7eILLTiCZ4j+kWWbgPtXyIwnoppNNVr0ZYFtbnifCtcuy4siRW/2HnP4QnFubqBLWwpq8ZF8qHjUFaC4kg6hwCtgq42YBaVaFWbZa6wQxFXf2E7sEO0HOwS8RvWWLZnToPe0sLIVG1xEexGlxBqOCczKSvhubwsXPeNeUNkjoz3I+v0oHlRm6QMFO8GfH8He6y9AZBsTCQ0kl35rIS6ICohzfl3JzX+MiFUek7db41x3Y9Qy3fZW4fn2PbU6N2+PW21AP09qOmIl5wx091tLmoB+VD06Wr6vF4jLb+/PNP3anmdiLfDoSOYXdRbepinWbZ/zQOEgiMhO1QXmUitEXL+M4RXgDrEGr2VGkzrH3pBjqz4Vfa6D80wp327eNzbvk09C4VdaRpAboe3hClbWmx7ePz0k17dhWPWUVRKC79hhcu5Xl+JVGvWpLSDdrmXdPfIPRGPkfyltFvz7FYWKyTDN14+htEX3bwBRkndzwev379Ooi6hiA4CUYRiqn/OL30BNol6kuPu+EAawJEQwtNioVWuApsUlfLXLuiGknTXGWml5zTfgJz9a5gfE40QivX9vNrV6wfV+kNgj57pV6PbrmvWtRbOr+lO6Kz7SsWAVxh60uE5g3NL4ikbxCa98olb5zAvL3LN0h6g2Ctb0W/cee/2Q5Y1G+Wf13rC/hLkLq7yH3Iuj799zXsnIe9Pv4KL99BcGP/v2vXfVrA2OuaX9JrM5ma5mzm4V3a+gKcZB5DmMksLGDsitrpDhGwqHdostxVEzABEzABE6gjYFGvo+NrJmACJmACJtAhAhb1Dk2Wu2oCJmACJmACdQQs6nV0fM0ETMAETMAEOkTAot6hyXJXTcAETMAETKCOgEW9jo6vmYAJmIAJmECHCFjUOzRZ7qoJmIAJmIAJ1BGwqNfR8TUTMAETMAET6BABi3qHJstdNQETMAETMIE6Ahb1Ojq+ZgImYAImYAIdImBR79BkuasmYAImYAImUEfAol5H52avlZ4vOZMupUdBzMSsGsFBLzyYUi+FM1X9V6wDnPRjOGETf5CcJ/Gk5ReTU3pK2JRNh4PRprSm1ZsffKy1rpqumRrFVXVS+1Wbc3kTSAm0S9RxIjWOoN4+Pn/4w6+37t7LskyPx+Zp6Ho0NU+hvtJ56tocz1Pn8dvhrO6UnYba4XAIAUNU4lkm4/H45cuXl5eXGoJZOLXJnLkeQnU9UdeoxH5WJZqLOs4If+/RUuHccR6LXjrj6jCcUJ1ueldzsyhJn1zfPWBam0NmaVvBk1m9iiHz1dN49rl6FEsuMnElf9CO1TytDt/9aOFZpa8t6gF+fX8ainqWZdfuT30HfNUE2ijqjNeYHgRTZGp68/AEAq+ZGmrD7G48eUHtz7IMtfiIgMLruwdbR28+/+m32/cfNhd1DVKlSw09ULnJzVxqJAxnmo8LEPX67oVA2UQebt9/+PlPv63t7GVZ9m6afscclc742s4eJ5E9gdCm3tXQLDqwdfQGFtguniqC2fe2xV41SQRcTaosoEyTWSvtht4vWqAqX8tcO93kvis1Piv4Ka5ZWS7ttjNXlkAHRD2IMT9S1BFAIc8MtemMsiIubTx5kS6VUP3TpzliNJtIrXEPOQSLKj3mEqSJoKbRbTAYnJ2djcfjoigmk0me51mWYRPv9PR0MpkURcG97jzPkRPOPNUzH7Ey1s5oOrWgdYuiqD+nlQdWhlNZcd4ztjHSSyEnMFdRX9vZ2zp6Q4FP5/F6ol5vFh34+KtvP3v2Cx4s0G6pk5SKutoPoyv9mOKCd6kPYJ/j7OxsMpnAx4qiqFnED4fD09PTy8tLncQ8z0ej0dnZGaaGuyacR7WJg9JRkq6ozqPpYEHrBjdIb5xerzcej09PT0NJvK+hQ3KwzFHnVE9Gvt6wmgZJtMWSvI+QTzLpfJVOTZZlOmTiQvVU5lOzzjGBqxJoo6hz+x0L6xA0KdvM11hZuhkLKEHUWX3jyQu0uL57AOMfffHlg+evbt29xzKlWAeDwejdDyQWZXhvIwpQaHEDQ5j39/dLDTJz8O6HH/EAwcDKB3y0pdv+/X5f9+0RUBD1+FSh290af5lGHGSsZDeuGoPYT1gYDAakES412Y1UUdcHstIZ1/3w7eNzPKJBaOldkOTmZlESvrG2swdXub3x8OEPv4ZlepZlpW1lWQZn2zr6e5uBbNNEDa4wEcPhEO93JpMJwNZoz3A4pLSEGUct6lzYXrq8vMzzXD1Ku0FT6l39fp9t6QDTZ1aI33g87vV6LIm24DPalm5x05S6N9HpvcBxMRG8ruqlWOqr7GGa0H5S0XErhUuoq9xSa84xgWsQaKOohxAZlFVFHQEar8MxeF5NWVSJOkMwRR1yvr57EJoONrGQCmErXXCwFsqnYskCTAyHw1BMIwvWVfvvfsbjcSgZvneGqBECCkMJExqLtS12CRHq4uJCn2D0appWOwGLXkJFLMs0pgeDeF2CGdeleemMX2mlvnX0exOzlH84Btq98/D/to5+Dx6rHhVGgY94ENFRhGL1uEpnk1qlcxrM6izj3Tx2R1hXy+uTJftDEQ3+oI0yzYSaRbt8vOMlejVz0mHC1bUPKBy+d8bhqJsxkwkV9dAW+8ANOc2pSQc72tVwCUYUco1ZXzKB5gQ6IOpBjPmRirt5eMKlT2mIBw5WTD9ys5TV13b2Pnv2C5soBYqQoQsabImnQovqGk1KDTLTok4UTFBToe78egSnjCXxfbSrvlN/r1l2AM98H3/17cMffsVKPXwz472i/t4CFFEMSsUpqCl1mt5VJaUwpVf5/Me6ylD1hv2pUik1yzQTatairjQUsuY7bQLXJtABUdfddU1TcbHXitVSaYgHnSDqWisV9Vt37z14/mrr6E0ar8maoZbbfbMS9fRWZ1sM4lVthS1H7JoiKGN/FRsGSHPTElua3IBFLY4UCUb2kF/1UfuMbmNdiLbCG/R0oRbMUlOxiV3/GHellTq/KLfx5EWN2dCBz3/6F5ba67sHuleEbtOjwij4Ec8Q6RKfBcLUKK6w5oN2UpirpBSWeVVnk3XZOqSXL6f55ErvQnVuU4XewpFYS83q+ljz060aHab2UB8saIEdCJ6GIWAnn2/K9abgGNUCzVY9gmgBTWufMVJti7hYJTy+6xsHlnHCBK5EoAOiji8l8VUo4yBFHVGeEZYl+TKVb81xiTqtb175K23cFMUeKQunWFW08F6z1+sh2OGFun55rSqWpWZL40j6nakqUUd1doCb8/zGEMI69Ztfsjs7O0NmsMBMzWcoLO2/9rYoCggSAhaYvH79WlWqySanaiokE1NT9U69aqVO98BENzerJSHJwVVgGZnoYWirtKulAPk6NuAiQ8wvROKqok7f4MyqZGp/OI+qRsx8/fr1aDTC6xh613g8VkdiYX4jBPb5pTa6gT5koIwOVjtQKup63+nePhqaTCaohfc7bP309JQv8tWCurfmk5hSSnur32QkAcXFKuF9FtrS1tOGnGMC9QTaJer1fV2dq7i3qcdNNK/TcML6ptNjaXnnuVJvYT+DWi+9V+iqgNOh237MdMIEmhOwqDdntdCS3OdEq6X3/0I7NM/G2qw08xz3DdhuOWrdA19uUU93R7DbodsMN+AfbrL7BCzq7Z1Dfo+pnSt13R3ljq5ukzYkq8NsWMXF6gnUTE3LRV2/x95OUed2On2eL5jqJ0Wv6jA132kTmJ6ARX16hrZgAiZgAiZgAq0gYFFvxTS4EyZgAiZgAiYwPQGL+vQMbcEETMAETMAEWkHAot6KaXAnTMAETMAETGB6Ahb16RnaggmYgAmYgAm0goBFvRXT4E6YgAmYgAmYwPQELOrTM7QFEzABEzABE2gFAYt6K6bBnTABEzABEzCB6QlY1KdnaAsmYAImYAIm0AoCFvVWTIM7YQImYAImYALTE7CoT89wXhbC+RbzaqbCLs+dS6/rn61+75GpafVVy1FcOKxvMpnUnPd1g3xCVxfcE5zJq+cYsQP6J2P9N1aJxQkTSAm0S9RLD6zMskzPSOVZqJuHJzzacvPwBGMrPd2y6uhVbY5Hr24fn2sTTKfs9JCV4XCIkxj0oEacm/ny5cvLy0sNVSyc2mROONCF+QtLNBT15n+XXmeBh5bqFGwfn9ecW5plmc44Dz7XTLqBOgwnFB3A0b1oV4/xpS8hs9SRtLfpGepVUxOUEud2tFDU8Rfj1VGrRjSn/IaifqVTjOfUVZs1gdYSaKOoM9SCGs6uRqameZ66Zq7vHlAwAvSNJy8Y9LMsQ62g2eu7B1tHb3gUN5sIpvCRoq5L6vTUVBxDzjOSQ4gvtVxqpLTkjWSGITTsLflDGkE+iCuGU5oJUQ/zpZnqBms7e5xEItp48mLr6M2D569u3b3HJpBIfabUker9gQ2FRMAVrrbnY5vPetGVOojx7msPQPfEBNpAoAOiTjEAL35khEVcRrgvjcWhIj9WhfJPn+Z4hmATpVOFsBJCdpXC8UzJJqFTnxLQtIYwTWNxgwOjuPjTQ7qYicPQhsMhCtcsyLCUxDbD/v4+x878oij4jIKraYdZiwlOHJQYD1gUVxbLsqw0U/VbC3OO1A2qRH3z8OSzZ7+s7eyxidKSWZaljqT2tQNV6VJcKX+8vxiNRpPJ5PT0dDKZ1By+qc6m6endQK1hRJoT0pPJBF40HA45fA6N/W/ucrhriqIIp/ypJ6eXLi4u8jxnB5wwARPIsqyNos6NUMR9Rm1MGKMt89d29raO3qzt7CEWs/r28bku+lVUVCG4Lby+ewDjH33xJdZzbKLUVwaDwejdj0YWhidEPQY4LDXOzs6YU2oTmYN3P1pAhZzp0peLmqlp3dtsosGhjL4O0BCPTqYLKe080uSvS2ooJaesdPud+yu6067b73ieUzeo2n7fPDxZ3z3YPDyhqNOdQodLt99pVv0qVMTHGlzhsY+78Xjf0e/3Ly4uer1elVle5SzoLLOWZmq6yg3SA3BpP2x3D4fD9IlQPZbpqrbYyZAIXqSvA8IlVGzyfBya8EcTWHoCbRT1EDGDsjIKM8Tr201eTWeOooJLajYN8Yz+6X4vLeNk5bCACCGbhfHuuSiKNCBqGaTTuEkhD++wsTzicpzfw8IjhS7Kg0injYacUF47oOEetVQ2gh1+5MOTPmyRPItdY6WOZwJ1g9L1Nxzg1t17D56/+uiLLx/+8Ov67sHGkxfphk3pSp09xEOJNsdLTNTgCh5CmJAofqQpTehVTU/vBlRiNqf2NQ231zV6eJDl+eLBhWi5KhGUW6uHS7CQ9rnKsvNNYHUIdEDUgxjzI1V58/CE67bmok47qiKsvraz99mzX9hEqUMgcPf7fd2LDiFbK2pk1Pw03VzUUVfjbNXX0TVEpi2mOaF8jUplWdZQ1LHm3njygoo4E1HHg5e6QY2oQ7A/fZpD1N99i+L32/cfBgL0hJDPj+o/zGSiBlfwEHrFNKKOdqdxg1Qg2bGwUkdbWIVj26lq9oMLEU5VIii3Vg+XOF59nK0y63wTWCkCHRD1sK3KnXYqLjZFsb6vicUhCmstSgurYz23dfSmfqWO9cpgMOCmegjZ6kwaJTU/TacRlk1gt1bXSahOLcemZRrsNESmLaY5oTyfXWBfn2OyLOv1euPxuGrTGMbJX7+iSPLagdJMfWOihUvdoF7Ub99/+PlPv20dvVnfPUBb3OGnZXoCc0Ji8/AkrcUyNbiCh9ArGor65eVlnucwEmYB6jsajf5z9apuULr9Xt+WTnrpL3QEFyKcqkRQbr7CwGDDlliWZemzb5Vl55vA6hDogKiHN+XcnGc0z7KMm6ilr0J145e/4BR+Uw5rRw3lMNVE1BFfEGERgLj7TbEvXe5U+VkaDRGj8Q2109NTiDozwzeMSr+ildqsaZ3916/LYY93MpnAlEp4E+MUdUwoNlegqaXv1DnR7CdfuGwfn3NvptQN+PIbljGJ2oH019vYBz4dMgfvC/AswswaRUeHU1zBN/Au5kqiDk/D7JyenuJBaiZuwG6QdmlbYQh8l1Sa38Qr0JwOQZ0Zew9FUbx+/Xo0GumXV8ITgHbbaRNYZQLtEvVVngkdO0IkI6ZeamG6W71tIcCWdKlb3zvTFxwtAehumEAbCFjU2zALJX3g3mPJtZZlOby2bEKu2R0slzvxKFm6r3DNYbuaCSwXAYt6e+czfc05275if1h32ouiSF/G1zfKd/n1xXz1SgS47ayzk36R4ko2mxSe92zOZFxV38trMkCXMYGlJ2BRX/op9gBNwARMwARWhYBFfVVm2uM0ARMwARNYegIW9aWfYg/QBEzABExgVQhY1Fdlpj1OEzABEzCBpSdgUV/6KfYATcAETMAEVoWARX1VZtrjNAETMAETWHoCFvWln2IP0ARMwARMYOqVJSkAAAMySURBVFUIWNRXZaY9ThMwARMwgaUnYFFf+in2AE3ABEzABFaFgEV9VWba4zQBEzABE1h6Ahb1pZ9iD9AETMAETGBVCFxf1Of9Z6JXZQY8ThMwARMwAROYEYHri3qWZT6ea0azYDMmYAImYAImMAMCU4m6D9KewQzYhAmYgAmYgAnMiMBUop5lWb/fH4/H+/v77E+/3y+KohOnMrPPTpiACZiACZjAEhCYVtR7vd7FxUWe52RhUScKJ0zABEzABExgkQSmFfX9/f3RaKSivsjeuy0TMAETMAETMAESsKgThRMmYAImYAIm0G0C04p6r9cbj8e9Xo8Y8jyfTCaDwYA5TpiACZiACZiACSyAwLSinn5RrtfrXV5ehm/PLWAkbsIETMAETMAEVpzAVKJe+ittyPRKfcUdy8M3ARMwARNYPIGpRD394zP46vtwOFz8SNyiCZiACZiACaw4geuLuv9M7Iq7jodvAiZgAibQNgLXF/W2jcT9MQETMAETMIEVJ2BRX3EH8PBNwARMwASWh4BFfXnm0iMxARMwARNYcQIW9RV3AA/fBEzABExgeQhY1JdnLj0SEzABEzCBFSdgUV9xB/DwTcAETMAEloeARX155tIjMQETMAETWHECFvUVdwAP3wRMwARMYHkIWNSXZy49EhMwARMwgRUnYFFfcQfw8E3ABEzABJaHgEV9eebSIzEBEzABE1hxAhb1FXcAD98ETMAETGB5CFjUl2cuPRITMAETMIEVJ2BRX3EH8PBNwARMwASWh4BFfXnm0iMxARMwARNYcQIW9RV3AA/fBEzABExgeQj8LeqPHz/+4IMPlmdYHokJmIAJmIAJrBiBDz744PHjx0VR/E+e5/fv31+x4Xu4JmACJmACJrA8BDY2NvI8/0vU3759++jRow8//HB5BueRmIAJmIAJmMDKEFhbW3v06NHbt2//EvWiKP74449Hjx598sknd+7cWRkIHqgJmIAJmIAJdJvAnTt37t+//+jRoz/++KN49/OXqBdF8fbt2zzPHz9+/L/+MQETMAETMAET6AKBx48f53mONTrU/G9Rxwf/bwImYAImYAIm0F0C/w8beXvl0KA/FAAAAABJRU5ErkJggg==;" vertex="1" parent="1">
          <mxGeometry x="75" y="890" width="668" height="667" as="geometry" />
        </mxCell>
        <mxCell id="CqfHQlrDjr0aH3tHqc1y-56" value="" style="outlineConnect=0;dashed=0;verticalLabelPosition=bottom;verticalAlign=top;align=center;html=1;shape=mxgraph.aws3.bucket;fillColor=#E05243;gradientColor=none;" vertex="1" parent="1">
          <mxGeometry x="110" y="1730" width="60" height="61.5" as="geometry" />
        </mxCell>
        <mxCell id="CqfHQlrDjr0aH3tHqc1y-57" value="" style="outlineConnect=0;dashed=0;verticalLabelPosition=bottom;verticalAlign=top;align=center;html=1;shape=mxgraph.aws3.bucket;fillColor=#E05243;gradientColor=none;" vertex="1" parent="1">
          <mxGeometry x="379" y="1730" width="60" height="61.5" as="geometry" />
        </mxCell>
        <mxCell id="CqfHQlrDjr0aH3tHqc1y-59" style="edgeStyle=orthogonalEdgeStyle;rounded=0;orthogonalLoop=1;jettySize=auto;html=1;exitX=0.94;exitY=0.5;exitDx=0;exitDy=0;exitPerimeter=0;entryX=0.06;entryY=0.5;entryDx=0;entryDy=0;entryPerimeter=0;" edge="1" parent="1" source="CqfHQlrDjr0aH3tHqc1y-56" target="CqfHQlrDjr0aH3tHqc1y-57">
          <mxGeometry relative="1" as="geometry" />
        </mxCell>
        <mxCell id="CqfHQlrDjr0aH3tHqc1y-60" style="edgeStyle=orthogonalEdgeStyle;rounded=0;orthogonalLoop=1;jettySize=auto;html=1;exitX=0.94;exitY=0.5;exitDx=0;exitDy=0;exitPerimeter=0;entryX=0.06;entryY=0.5;entryDx=0;entryDy=0;entryPerimeter=0;" edge="1" parent="1" source="CqfHQlrDjr0aH3tHqc1y-57">
          <mxGeometry relative="1" as="geometry">
            <mxPoint x="633.6000000000001" y="1760.75" as="targetPoint" />
          </mxGeometry>
        </mxCell>
        <mxCell id="CqfHQlrDjr0aH3tHqc1y-61" value="" style="outlineConnect=0;dashed=0;verticalLabelPosition=bottom;verticalAlign=top;align=center;html=1;shape=mxgraph.aws3.redshift;fillColor=#2E73B8;gradientColor=none;" vertex="1" parent="1">
          <mxGeometry x="630" y="1723" width="67.5" height="75" as="geometry" />
        </mxCell>
        <mxCell id="CqfHQlrDjr0aH3tHqc1y-62" value="" style="outlineConnect=0;dashed=0;verticalLabelPosition=bottom;verticalAlign=top;align=center;html=1;shape=mxgraph.aws3.emr;fillColor=#F58534;gradientColor=none;" vertex="1" parent="1">
          <mxGeometry x="492.5" y="1790" width="67.5" height="81" as="geometry" />
        </mxCell>
        <mxCell id="CqfHQlrDjr0aH3tHqc1y-63" value="" style="outlineConnect=0;dashed=0;verticalLabelPosition=bottom;verticalAlign=top;align=center;html=1;shape=mxgraph.aws3.emr;fillColor=#F58534;gradientColor=none;" vertex="1" parent="1">
          <mxGeometry x="240" y="1790" width="67.5" height="81" as="geometry" />
        </mxCell>
        <mxCell id="CqfHQlrDjr0aH3tHqc1y-64" value="Landing Zone" style="text;html=1;align=center;verticalAlign=middle;whiteSpace=wrap;rounded=0;" vertex="1" parent="1">
          <mxGeometry x="100" y="1693" width="60" height="30" as="geometry" />
        </mxCell>
        <mxCell id="CqfHQlrDjr0aH3tHqc1y-65" value="Data warehouse&amp;nbsp;" style="text;html=1;align=center;verticalAlign=middle;whiteSpace=wrap;rounded=0;" vertex="1" parent="1">
          <mxGeometry x="630" y="1693" width="60" height="30" as="geometry" />
        </mxCell>
        <mxCell id="CqfHQlrDjr0aH3tHqc1y-66" value="Silver Layer" style="text;html=1;align=center;verticalAlign=middle;whiteSpace=wrap;rounded=0;" vertex="1" parent="1">
          <mxGeometry x="379" y="1693" width="60" height="30" as="geometry" />
        </mxCell>
      </root>
    </mxGraphModel>
  </diagram>
</mxfile>
